<svg width="20" height="20" viewBox="0 0 20 20" fill="none" xmlns="http://www.w3.org/2000/svg">
<g clip-path="url(#clip0_10031_118593)">
<path d="M13.6819 7.51129L10.0005 4.24754L6.31908 7.51129L5.6897 6.87254L10.0005 3.04004L14.3113 6.87254L13.6819 7.51129ZM13.4491 8.86754L9.95739 11.8688L6.55186 8.83254V8.18504L10.0005 5.12254L13.4491 8.18504V8.86754ZM10.8627 9.98754V8.50004H9.13834V9.98754H10.8627ZM9.37112 13.5138L5.6897 10.25L2.00828 13.5138L1.37891 12.875L5.6897 9.04254L10.0005 12.875L9.37112 13.5138ZM17.9927 13.5138L14.3113 10.25L10.6299 13.5138L10.0005 12.875L14.3113 9.04254L18.6221 12.875L17.9927 13.5138ZM5.6897 11.125L9.13834 14.1875V17.25H2.24107V14.1875L5.6897 11.125ZM14.3113 11.125L17.7599 14.1875V17.25H10.8627V14.1875L14.3113 11.125ZM6.55186 16.375V14.625H4.82754V16.375H6.55186ZM15.1735 16.375V14.625H13.4491V16.375H15.1735Z" fill="currentColor"/>
</g>
<defs>
<clipPath id="clip0_10031_118593">
<rect width="17.2432" height="17.5" fill="white" transform="translate(1.37891 1.5)"/>
</clipPath>
</defs>
</svg>
