<svg width="21" height="20" viewBox="0 0 21 20" fill="none" xmlns="http://www.w3.org/2000/svg">
<path d="M18.8682 16.875C18.8648 17.3147 18.7093 17.7392 18.4288 18.0744C18.1483 18.4095 17.7606 18.6339 17.3336 18.7084C16.9066 18.7828 16.4674 18.7026 16.0927 18.4817C15.7181 18.2608 15.4319 17.9133 15.2841 17.5H12.5991C12.4696 17.862 12.2335 18.1747 11.9228 18.3957C11.6121 18.6167 11.2418 18.7353 10.8624 18.7353C10.483 18.7353 10.1128 18.6167 9.80206 18.3957C9.49134 18.1747 9.25524 17.862 9.12579 17.5H6.44078C6.31132 17.862 6.07522 18.1747 5.7645 18.3957C5.45378 18.6167 5.08357 18.7353 4.70414 18.7353C4.32471 18.7353 3.95449 18.6167 3.64379 18.3957C3.33308 18.1747 3.09695 17.862 2.96751 17.5H2.24083C2.0775 17.5 1.92086 17.4342 1.80537 17.317C1.68988 17.1997 1.625 17.0408 1.625 16.875C1.625 16.7092 1.68988 16.5503 1.80537 16.4331C1.92086 16.3158 2.0775 16.25 2.24083 16.25H2.96751C3.09695 15.888 3.33308 15.5753 3.64379 15.3543C3.95449 15.1333 4.32471 15.0147 4.70414 15.0147C5.08357 15.0147 5.45378 15.1333 5.7645 15.3543C6.07522 15.5753 6.31132 15.888 6.44078 16.25H9.12579C9.25524 15.888 9.49134 15.5753 9.80206 15.3543C10.1128 15.1333 10.483 15.0147 10.8624 15.0147C11.2418 15.0147 11.6121 15.1333 11.9228 15.3543C12.2335 15.5753 12.4696 15.888 12.5991 16.25H15.2841C15.4319 15.8367 15.7181 15.4892 16.0927 15.2683C16.4674 15.0474 16.9066 14.9672 17.3336 15.0416C17.7606 15.1161 18.1483 15.3405 18.4288 15.6756C18.7093 16.0108 18.8648 16.4353 18.8682 16.875ZM4.08831 7.5C4.08831 6.26388 4.44947 5.0555 5.12616 4.02769C5.80285 2.99988 6.76464 2.1988 7.88992 1.72575C9.0152 1.25271 10.2534 1.12894 11.448 1.3701C12.6426 1.61125 13.7399 2.20651 14.6012 3.08058C15.4624 3.95465 16.0489 5.06831 16.2866 6.28069C16.5242 7.49308 16.4022 8.74973 15.9361 9.89177C15.47 11.0338 14.6807 12.0099 13.6679 12.6967C12.6552 13.3835 11.4646 13.75 10.2466 13.75C8.6133 13.75 7.04694 13.0915 5.89203 11.9194C4.73711 10.7473 4.08831 9.15761 4.08831 7.5ZM9.63077 7.24377C9.63213 7.57473 9.7628 7.89165 9.99412 8.125L11.6569 9.81877C11.7144 9.87669 11.7826 9.9225 11.8577 9.95361C11.9327 9.98473 12.013 10.0005 12.0941 10C12.1751 10.0005 12.2555 9.98473 12.3305 9.95361C12.4055 9.9225 12.4738 9.87669 12.5313 9.81877C12.5891 9.76065 12.6349 9.69154 12.6661 9.61535C12.6974 9.53919 12.7135 9.4575 12.7135 9.375C12.7135 9.2925 12.6974 9.21081 12.6661 9.13465C12.6349 9.05846 12.5891 8.98935 12.5313 8.93127L10.8624 7.24377V4.375C10.8624 4.20923 10.7975 4.05027 10.682 3.93308C10.5666 3.81585 10.4099 3.75 10.2466 3.75C10.0833 3.75 9.92663 3.81585 9.81116 3.93308C9.69564 4.05027 9.63077 4.20923 9.63077 4.375V7.24377Z" fill="currentColor"/>
</svg>
