<svg width="21" height="20" viewBox="0 0 21 20" fill="none" xmlns="http://www.w3.org/2000/svg">
<path d="M12.0404 5.18655C12.8364 5.69304 13.3945 6.5501 13.4961 7.54497C13.8207 7.69889 14.181 7.78742 14.563 7.78742C15.9574 7.78742 17.0877 6.64036 17.0877 5.22538C17.0877 3.81014 15.9574 2.66309 14.563 2.66309C13.1818 2.66352 12.0615 3.79006 12.0404 5.18655ZM10.3864 10.4328C11.7809 10.4328 12.9111 9.2855 12.9111 7.87052C12.9111 6.4555 11.7807 5.30844 10.3864 5.30844C8.99223 5.30844 7.86137 6.45572 7.86137 7.8707C7.86137 9.28572 8.99223 10.4328 10.3864 10.4328ZM11.4574 10.6074H9.31511C7.53264 10.6074 6.08254 12.0793 6.08254 13.8883V16.5472L6.08924 16.5889L6.26968 16.6462C7.97069 17.1856 9.44852 17.3655 10.6649 17.3655C13.0407 17.3655 14.4178 16.678 14.5026 16.6342L14.6712 16.5476H14.6893V13.8883C14.6899 12.0793 13.2398 10.6074 11.4574 10.6074ZM15.6343 7.96229H13.5086C13.4856 8.82546 13.1225 9.60274 12.5483 10.1618C14.1326 10.6399 15.2919 12.131 15.2919 13.8923V14.7116C17.3908 14.6335 18.6003 14.0298 18.68 13.9893L18.8486 13.9025H18.8666V11.2427C18.8666 9.43399 17.4166 7.96229 15.6343 7.96229ZM5.95646 7.78787C6.45035 7.78787 6.90988 7.64157 7.29914 7.39236C7.42288 6.57323 7.85557 5.85742 8.47361 5.36991C8.47621 5.32195 8.48071 5.27444 8.48071 5.22603C8.48071 3.81078 7.35027 2.66374 5.95646 2.66374C4.5618 2.66374 3.43178 3.81078 3.43178 5.22603C3.43178 6.64059 4.5618 7.78787 5.95646 7.78787ZM8.22378 10.1618C7.65233 9.60557 7.29055 8.83244 7.26411 7.97452C7.18529 7.96863 7.10728 7.96229 7.02697 7.96229H4.88487C3.10244 7.96229 1.65234 9.43399 1.65234 11.2427V13.9021L1.659 13.943L1.83946 14.0008C3.20406 14.4332 4.42192 14.6325 5.47975 14.6953V13.8923C5.48019 12.131 6.63897 10.6403 8.22378 10.1618Z" fill="currentColor"/>
</svg>
