<svg width="20" height="20" viewBox="0 0 20 20" fill="none" xmlns="http://www.w3.org/2000/svg">
<path fill-rule="evenodd" clip-rule="evenodd" d="M1.875 10C1.875 5.51269 5.51269 1.875 10 1.875C14.4873 1.875 18.125 5.51269 18.125 10C18.125 14.4873 14.4873 18.125 10 18.125C5.51269 18.125 1.875 14.4873 1.875 10ZM13.0086 8.48827C13.2092 8.20739 13.1442 7.81705 12.8633 7.61642C12.5824 7.41579 12.192 7.48084 11.9914 7.76173L9.29525 11.5364L7.94194 10.1831C7.69786 9.93898 7.30214 9.93898 7.05806 10.1831C6.81398 10.4271 6.81398 10.8229 7.05806 11.0669L8.93306 12.9419C9.06297 13.0719 9.24346 13.138 9.42655 13.1229C9.60964 13.1077 9.7768 13.0128 9.88358 12.8633L13.0086 8.48827Z" fill="currentColor"/>
</svg>
