<svg width="21" height="20" viewBox="0 0 21 20" fill="none" xmlns="http://www.w3.org/2000/svg">
<path d="M4.60997 3.18262C3.22175 3.18262 2.08594 4.31844 2.08594 5.70667C2.08594 7.09487 3.22175 8.23069 4.60997 8.23069C5.9982 8.23069 7.13401 7.09487 7.13401 5.70667C7.13401 4.31844 5.9982 3.18262 4.60997 3.18262Z" fill="currentColor"/>
<path d="M2.08594 11.7592V16.8224C2.08594 17.2758 2.46454 17.6537 2.91887 17.6537H2.94411C3.39844 17.6537 3.77704 17.2758 3.77704 16.8224V15.966C3.77704 15.5125 4.15565 15.1347 4.60997 15.1347C5.06429 15.1347 5.4429 15.5125 5.4429 15.966V16.8224C5.4429 17.2758 5.8215 17.6537 6.27583 17.6537H6.30108C6.75541 17.6537 7.13401 17.2758 7.13401 16.8224V11.7592C7.13401 10.3738 5.9982 9.24023 4.60997 9.24023H4.58473C3.22175 9.26544 2.08594 10.3738 2.08594 11.7592Z" fill="currentColor"/>
<path d="M9.72493 6.66577L9.85158 6.792C10.1302 7.06963 10.5356 7.09488 10.8396 6.86772C10.8649 6.84247 10.9155 6.81721 10.9409 6.792C11.2955 6.53958 11.8275 6.6153 12.0302 6.99391C12.4608 7.72586 13.2715 8.23069 14.2088 8.23069C15.1461 8.23069 15.9567 7.72586 16.3874 6.99391C16.6154 6.6153 17.122 6.53958 17.4767 6.792C17.502 6.81721 17.5527 6.84247 17.578 6.86772C17.882 7.09488 18.3127 7.06963 18.566 6.792L18.6926 6.66577C19.0219 6.33767 18.9713 5.80763 18.6166 5.52996C17.9833 5.05042 17.2993 4.67181 16.5647 4.41939C16.4127 4.36891 16.286 4.29319 16.1847 4.16699C15.7287 3.56122 14.9941 3.18262 14.1834 3.18262C13.3728 3.18262 12.6381 3.58646 12.1822 4.16699C12.0809 4.29319 11.9542 4.36891 11.8022 4.41939C11.0675 4.67181 10.3836 5.05042 9.75024 5.52996C9.42094 5.80763 9.3956 6.31242 9.72493 6.66577Z" fill="currentColor"/>
<path d="M10.5084 15.9609H12.2168C12.3927 15.9609 12.5435 16.1125 12.5435 16.2894V16.7189C12.5435 17.2242 12.9454 17.6537 13.473 17.6537H14.9805C15.483 17.6537 15.9101 17.2494 15.9101 16.7189V16.2894C15.9101 16.1125 16.0608 15.9609 16.2367 15.9609H17.8949C18.1461 15.9609 18.2969 15.7082 18.2215 15.5061L16.4628 10.8067C16.1111 9.84661 15.2066 9.24023 14.2017 9.24023C13.1967 9.24023 12.2922 9.87185 11.9405 10.8067L10.1818 15.5061C10.1064 15.7082 10.2823 15.9609 10.5084 15.9609Z" fill="currentColor"/>
</svg>
