<svg width="20" height="20" viewBox="0 0 20 20" fill="none" xmlns="http://www.w3.org/2000/svg">
<g clip-path="url(#clip0_10031_118597)">
<path d="M3.18129 10.9637V5.65121C3.18129 5.28346 2.88318 4.98535 2.51547 4.98535C2.14772 4.98535 1.84961 5.28346 1.84961 5.65121V14.3495C1.84961 14.7173 2.14772 15.0154 2.51547 15.0154C2.88318 15.0154 3.18129 14.7173 3.18129 14.3495V13.1021L16.8197 13.07V14.3175C16.8197 14.6852 17.1178 14.9833 17.4855 14.9833C17.8532 14.9833 18.1513 14.6852 18.1513 14.3175V13.07V11.3283V10.9316L3.18129 10.9637Z" fill="currentColor"/>
<path d="M18.1514 10.3934H8.0293V7.88586C8.0293 7.15823 8.61916 6.56836 9.3468 6.56836H15.4916C16.9606 6.56836 18.1514 7.75918 18.1514 9.22815V10.3934Z" fill="currentColor"/>
<path d="M5.6607 10.1065C6.55846 10.1065 7.28624 9.37877 7.28624 8.48101C7.28624 7.58325 6.55846 6.85547 5.6607 6.85547C4.76294 6.85547 4.03516 7.58325 4.03516 8.48101C4.03516 9.37877 4.76294 10.1065 5.6607 10.1065Z" fill="currentColor"/>
</g>
<defs>
<clipPath id="clip0_10031_118597">
<rect width="17" height="17" fill="white" transform="translate(1.5 1.5)"/>
</clipPath>
</defs>
</svg>
