<svg width="20" height="20" viewBox="0 0 20 20" fill="none" xmlns="http://www.w3.org/2000/svg">
<path d="M8.66058 7.16341C8.85866 7.00606 9.09395 6.89163 9.34615 6.82012V9.25675C9.08913 9.18377 8.85449 9.06755 8.66058 8.91351C8.31732 8.64083 8.18451 8.32001 8.18451 8.03846C8.18451 7.75691 8.31732 7.43609 8.66058 7.16341Z" fill="currentColor"/>
<path d="M10.6538 13.1922V10.7309C10.9566 10.8045 11.2325 10.9292 11.4571 11.0976C11.8289 11.3764 11.9615 11.6955 11.9615 11.9615C11.9615 12.2275 11.8289 12.5466 11.4571 12.8255C11.2325 12.9939 10.9566 13.1186 10.6538 13.1922Z" fill="currentColor"/>
<path fill-rule="evenodd" clip-rule="evenodd" d="M10 1.5C5.30558 1.5 1.5 5.30558 1.5 10C1.5 14.6944 5.30558 18.5 10 18.5C14.6944 18.5 18.5 14.6944 18.5 10C18.5 5.30558 14.6944 1.5 10 1.5ZM10.6538 4.76923C10.6538 4.40812 10.3611 4.11538 10 4.11538C9.63889 4.11538 9.34615 4.40812 9.34615 4.76923V5.48029C8.79963 5.57711 8.27849 5.79685 7.84717 6.13948C7.22614 6.63283 6.87681 7.31601 6.87681 8.03846C6.87681 8.76092 7.22614 9.44409 7.84717 9.93744C8.28521 10.2854 8.80796 10.5013 9.34615 10.5966V13.1921C9.0435 13.1185 8.76763 12.9938 8.54313 12.8255L7.77693 12.2508C7.48805 12.0341 7.07822 12.0927 6.86155 12.3815C6.64487 12.6704 6.70341 13.0803 6.9923 13.2969L7.75849 13.8716C8.22334 14.2202 8.77769 14.4336 9.34615 14.5249V15.2308C9.34615 15.5919 9.63889 15.8846 10 15.8846C10.3611 15.8846 10.6538 15.5919 10.6538 15.2308V14.5249C11.2224 14.4336 11.7768 14.2203 12.2417 13.8716C12.8912 13.3844 13.2692 12.6995 13.2692 11.9615C13.2692 11.2235 12.8912 10.5386 12.2417 10.0514C11.7768 9.70274 11.2224 9.48941 10.6538 9.3981V6.82019C10.906 6.8917 11.1412 7.00611 11.3392 7.16341L11.7009 7.45074C11.9836 7.67536 12.3949 7.62823 12.6195 7.34548C12.8442 7.06273 12.797 6.65143 12.5143 6.42681L12.1526 6.13948C11.7213 5.7969 11.2003 5.57718 10.6538 5.48033V4.76923Z" fill="currentColor"/>
</svg>
