<svg width="21" height="20" viewBox="0 0 21 20" fill="none" xmlns="http://www.w3.org/2000/svg">
<g clip-path="url(#clip0_10013_118132)">
<path d="M6.36586 1.66699C6.09993 1.66699 5.88474 1.88538 5.88474 2.15527V2.6929C4.25697 2.93239 2.99805 4.34424 2.99805 6.06152V6.59922C3.15358 6.56702 3.31436 6.5498 3.47916 6.5498H9.79781V6.06152C9.79781 4.34424 8.47475 2.93239 6.84697 2.6929V2.15527C6.84697 1.88538 6.63179 1.66699 6.36586 1.66699Z" fill="currentColor"/>
<path d="M12.6842 6.5498V5.4833C13.243 5.28105 13.6465 4.74414 13.6465 4.1084V2.15527C13.6465 1.88538 13.4313 1.66699 13.1653 1.66699H11.2409C10.975 1.66699 10.7598 1.88538 10.7598 2.15527V4.1084C10.7598 4.74414 11.1632 5.28105 11.722 5.4833V6.5498H12.6842Z" fill="currentColor"/>
<path d="M16.5319 6.5498V5.4833C17.0907 5.28105 17.4941 4.74414 17.4941 4.1084V2.15527C17.4941 1.88538 17.2789 1.66699 17.013 1.66699H15.0885C14.8226 1.66699 14.6074 1.88538 14.6074 2.15527V4.1084C14.6074 4.74414 15.0109 5.28105 15.5697 5.4833V6.5498H16.5319Z" fill="currentColor"/>
<path d="M5.37087 18.3337C6.07943 18.3337 6.65384 17.7507 6.65384 17.0316C6.65384 16.3125 6.07943 15.7295 5.37087 15.7295C4.6623 15.7295 4.08789 16.3125 4.08789 17.0316C4.08789 17.7507 4.6623 18.3337 5.37087 18.3337Z" fill="currentColor"/>
<path d="M15.0877 18.3337C15.7962 18.3337 16.3706 17.7507 16.3706 17.0316C16.3706 16.3125 15.7962 15.7295 15.0877 15.7295C14.3791 15.7295 13.8047 16.3125 13.8047 17.0316C13.8047 17.7507 14.3791 18.3337 15.0877 18.3337Z" fill="currentColor"/>
<path d="M17.0139 7.52637H3.4785C2.68261 7.52637 2.03516 8.18346 2.03516 8.99121V15.8923C2.03516 16.1621 2.25034 16.3805 2.51627 16.3805H3.7462C4.08012 15.7996 4.66195 15.2087 5.37089 15.2087C6.07983 15.2087 6.72581 15.7996 7.05974 16.3805H13.4327C13.7666 15.7996 14.3584 15.2087 15.0674 15.2087C15.7763 15.2087 16.4123 15.7996 16.7462 16.3805H17.9761C18.242 16.3805 18.4572 16.1621 18.4572 15.8923V8.99121C18.4572 8.18346 17.8098 7.52637 17.0139 7.52637Z" fill="currentColor"/>
</g>
<defs>
<clipPath id="clip0_10013_118132">
<rect width="16.4221" height="16.6667" fill="white" transform="translate(2.03516 1.66699)"/>
</clipPath>
</defs>
</svg>
