<svg width="21" height="20" viewBox="0 0 21 20" fill="none" xmlns="http://www.w3.org/2000/svg">
<path d="M12.3735 4.87642C11.4189 4.87642 10.2036 4.70361 8.94762 4.38907C7.68 4.07176 6.51553 3.64651 5.66876 3.19121C4.69018 2.66553 4.25156 2.16214 4.36521 1.69505C4.62663 0.617694 7.77235 1.41102 9.47605 1.80238C9.62639 1.83684 9.72079 1.98829 9.68665 2.14086C9.65254 2.29306 9.5033 2.38906 9.35334 2.35441C6.54505 1.7097 4.96179 1.6031 4.90695 1.83048C4.89281 1.8887 5.02496 2.20489 5.92945 2.69096C6.73738 3.12507 7.85682 3.53301 9.08124 3.83961C10.2947 4.14346 11.4625 4.31038 12.3731 4.31038C12.3815 4.31038 12.3895 4.31038 12.3975 4.31023C13.4211 4.30688 13.6832 4.08946 13.697 4.03161C13.7079 3.98719 13.3393 3.54215 12.8792 3.22523C12.7518 3.13752 12.7184 2.96137 12.8052 2.83202C12.8912 2.70304 13.0644 2.66859 13.1922 2.75684C13.7793 3.16129 14.3281 3.8 14.2388 4.16703C14.1251 4.63396 13.5064 4.87276 12.3993 4.87626C12.3906 4.87642 12.3822 4.87642 12.3735 4.87642Z" fill="currentColor"/>
<path d="M14.9862 18.8448C17.1107 18.8448 18.8395 17.0905 18.8395 14.9343C18.8395 12.7757 17.1107 11.0195 14.9862 11.0195C12.8591 11.0195 11.1289 12.7757 11.1289 14.9343C11.1289 17.0905 12.8591 18.8448 14.9862 18.8448ZM13.1656 14.0023H14.0635V13.0863C14.0635 12.5725 14.4757 12.1544 14.9818 12.1544C15.488 12.1544 15.9002 12.5725 15.9002 13.0863V14.0023H16.8028C17.309 14.0023 17.7211 14.4204 17.7211 14.9343C17.7211 15.4481 17.309 15.8663 16.8028 15.8663H15.9002V16.778C15.9002 17.2916 15.488 17.7097 14.9818 17.7097C14.4757 17.7097 14.0635 17.2916 14.0635 16.778V15.8663H13.1656C12.6594 15.8663 12.2473 15.4481 12.2473 14.9343C12.2473 14.4204 12.6594 14.0023 13.1656 14.0023Z" fill="currentColor"/>
<path d="M17.3724 7.25421L15.8665 1.83157C15.7847 1.54855 15.517 1.35612 15.2232 1.37876L9.68677 1.78629C9.67942 1.78629 9.67571 1.78629 9.66828 1.79007C9.56785 1.79762 9.46375 1.83535 9.37821 1.89574C9.32239 1.93347 9.26668 1.99008 9.22583 2.05044L9.17001 2.1297L8.27764 3.42404C8.55281 3.50704 8.83538 3.5863 9.1254 3.658C10.2111 3.92967 11.267 4.09197 12.1222 4.11836C12.1632 3.91836 12.2449 3.72592 12.364 3.55232C12.5052 3.34856 12.6874 3.19007 12.8956 3.08063C13.1336 2.95612 13.405 2.89572 13.6728 2.91083C13.9442 2.92592 14.2119 3.01271 14.4498 3.18252C15.1228 3.66555 15.2902 4.61271 14.8179 5.29951C14.5279 5.72213 14.0595 5.94855 13.5873 5.94855C13.2898 5.94855 12.9886 5.85801 12.7284 5.67309C12.5052 5.51459 12.3342 5.30705 12.2301 5.06174C11.2819 5.04667 10.1107 4.87686 8.9023 4.57121C8.49699 4.46932 8.09919 4.35609 7.71991 4.23159L1.75591 12.8693C1.66667 12.9976 1.63318 13.1523 1.66295 13.3033C1.689 13.458 1.77079 13.5901 1.89716 13.6769L9.01758 18.7448C9.27782 18.9259 9.63478 18.8617 9.81323 18.5976L11.0105 16.8693C10.7688 16.3637 10.6201 15.8052 10.5866 15.2165L9.59021 16.6542C9.46003 16.8391 9.25179 16.941 9.04354 16.941C8.91344 16.941 8.77955 16.8995 8.66427 16.8165L3.7972 13.3523C3.65214 13.2542 3.55555 13.0957 3.52578 12.9184C3.496 12.741 3.53322 12.5637 3.63734 12.4165L7.65302 6.59763C7.75705 6.45047 7.90955 6.34855 8.08429 6.31836C8.25904 6.28817 8.43378 6.32594 8.57877 6.43159L13.4459 9.89571C13.5873 9.99382 13.6877 10.1486 13.7211 10.3259C13.7397 10.4354 13.7285 10.5448 13.6951 10.6504C14.1041 10.5222 14.5353 10.4542 14.9852 10.4542C15.134 10.4542 15.279 10.4617 15.4241 10.4769L17.2831 7.78251C17.391 7.62782 17.4207 7.43536 17.3724 7.25421Z" fill="currentColor"/>
<path fill-rule="evenodd" clip-rule="evenodd" d="M11.1465 9.22679C11.3242 8.96414 11.2585 8.60498 10.9997 8.42464C10.7409 8.24425 10.387 8.31098 10.2093 8.57368L10.039 8.82541C9.71105 8.68018 9.35372 8.59491 8.99347 8.5991C8.43256 8.6056 7.92424 8.83371 7.62194 9.28056C7.31963 9.72737 7.29246 10.2908 7.48793 10.8244C7.61349 11.1671 7.82025 11.4749 8.07159 11.7334L7.34313 12.8101C7.23792 12.6814 7.15633 12.5463 7.10343 12.413L6.86157 11.8033C6.74431 11.5077 6.41317 11.3646 6.12193 11.4836C5.83069 11.6026 5.68968 11.9386 5.80689 12.2342L6.04879 12.8439C6.18901 13.1974 6.41408 13.5161 6.68402 13.7843L6.51648 14.0319C6.33874 14.2946 6.40449 14.6538 6.66333 14.8341C6.92213 15.0144 7.27601 14.9477 7.45371 14.6851L7.62122 14.4374C7.96483 14.5968 8.33884 14.6955 8.71424 14.7014C9.28573 14.7103 9.81508 14.4966 10.1258 14.0373C10.4366 13.578 10.443 12.9998 10.2295 12.4617C10.0893 12.1083 9.86416 11.7894 9.59418 11.5213L10.3124 10.4596C10.3918 10.5669 10.4534 10.6785 10.4941 10.7895L10.6026 11.0858C10.712 11.3844 11.0393 11.5365 11.3335 11.4254C11.6278 11.3144 11.7777 10.9823 11.6682 10.6836L11.5597 10.3874C11.4342 10.0447 11.2275 9.73694 10.9762 9.47856L11.1465 9.22679ZM9.00643 9.75287C9.12319 9.75152 9.24806 9.76971 9.37521 9.80648L8.73532 10.7523C8.65584 10.6451 8.59426 10.5333 8.55356 10.4223C8.45973 10.1661 8.50706 10.0107 8.55917 9.93368C8.61128 9.85668 8.73721 9.75598 9.00643 9.75287ZM8.28036 13.4632L8.93507 12.4955C9.04031 12.6242 9.12194 12.7593 9.17485 12.8926C9.28384 13.1673 9.23226 13.3196 9.18857 13.3841C9.14491 13.4487 9.02345 13.5522 8.73172 13.5477C8.59006 13.5454 8.43653 13.5167 8.28036 13.4632Z" fill="currentColor"/>
</svg>
