<svg width="21" height="20" viewBox="0 0 21 20" fill="none" xmlns="http://www.w3.org/2000/svg">
<g clip-path="url(#clip0_10031_118612)">
<path d="M11.3238 14.3638H9.67638C9.64222 14.4227 9.56361 14.5612 9.48501 14.7033C8.26485 16.8302 5.50328 17.4641 3.52093 16.0716C1.52835 14.6687 1.17632 11.8663 2.67332 9.92294C3.27485 9.14008 3.71916 8.23249 4.20791 7.36652C4.57704 6.71182 5.06919 6.21645 5.73224 5.87351C5.8758 5.78692 5.98517 5.65529 6.03984 5.49595C6.36795 4.4706 7.26 3.9302 8.23065 4.19001C9.17058 4.44289 9.65247 5.35044 9.48157 6.3931C9.44056 6.63559 9.66955 6.91965 9.76867 7.18636C9.88147 7.49468 10.0865 7.53278 10.3976 7.56743C11.1836 7.65054 11.2725 7.0201 11.4912 6.61136C11.5664 6.47281 11.5049 6.38618 11.4878 6.27881C11.2657 4.96596 11.7237 4.48791 12.6533 4.20386C13.6103 3.91289 14.5536 4.44981 14.8886 5.4405C14.9432 5.6068 15.1004 5.78345 15.2577 5.86659C15.8695 6.19566 16.3514 6.63906 16.7102 7.2418C17.3254 8.27754 17.9543 9.30633 18.5934 10.3282C19.8307 12.2993 19.2702 14.9215 17.3254 16.1582C15.3841 17.3983 12.8174 16.8059 11.5938 14.8349C11.5903 14.828 11.587 14.8245 11.5835 14.8176C11.481 14.6548 11.3887 14.4816 11.3238 14.3638ZM8.55537 12.6353C8.57245 11.1353 7.38645 9.90216 5.90657 9.88137C4.45059 9.86058 3.19966 11.0903 3.17573 12.5729C3.15181 14.0763 4.37538 15.3337 5.86555 15.3372C7.35572 15.3441 8.54512 14.1525 8.55537 12.6353ZM17.7971 12.611C17.7971 11.118 16.5872 9.88832 15.1209 9.88137C13.6581 9.87445 12.4346 11.1007 12.4107 12.5937C12.3901 14.0936 13.6239 15.3407 15.1244 15.3372C16.6043 15.3337 17.8005 14.1144 17.7971 12.611ZM10.4249 12.029C10.1241 12.0533 9.93957 12.2611 9.91906 12.6041C9.90198 12.9089 10.131 13.1722 10.4351 13.193H10.5103C10.8556 13.1722 11.0538 12.9782 11.064 12.618C11.0709 12.2646 10.8214 12.0221 10.4249 12.029Z" fill="currentColor"/>
</g>
<defs>
<clipPath id="clip0_10031_118612">
<rect width="17.5" height="17.5" fill="white" transform="translate(1.75 1.5)"/>
</clipPath>
</defs>
</svg>
