<svg width="20" height="20" viewBox="0 0 20 20" fill="none" xmlns="http://www.w3.org/2000/svg">
<path d="M6.43728 8.70312L5.89258 10.4169H6.98199L6.43728 8.70312Z" fill="currentColor"/>
<path d="M16.9314 1.08691H8.21613V3.851H10.3949V4.95663H3.3138C2.3878 4.95663 1.67969 5.67529 1.67969 6.61508V12.6961C1.67969 13.6358 2.3878 14.3545 3.3138 14.3545H3.8585V17.1739L7.29014 14.3545H10.9397V10.4848H16.9314C17.8574 10.4848 18.5655 9.76613 18.5655 8.82634V2.74536C18.5655 1.80558 17.8574 1.08691 16.9314 1.08691ZM7.56249 12.088L7.29014 11.2035H5.60156L5.27473 12.088H3.96744L5.76497 7.1679H7.07226L8.86978 12.088H7.56249ZM15.842 7.72071V8.82634C15.1339 8.82634 14.3713 8.60522 13.7176 8.27353C13.064 8.60522 12.3014 8.77106 11.5388 8.82634L11.4844 7.72071C11.8656 7.72071 12.2469 7.66543 12.6282 7.55487C12.138 7.05733 11.8112 6.44923 11.6478 5.78585H12.7916C12.9551 6.28339 13.2819 6.67036 13.6632 7.00205C14.2623 6.50452 14.6436 5.78585 14.6981 4.95663H11.4299V3.851H13.064V2.74536H14.1534V3.851H15.9509L16.0054 4.40381C16.0599 5.56473 15.6241 6.72564 14.8071 7.55487C15.1883 7.66543 15.5152 7.72071 15.842 7.72071Z" fill="currentColor"/>
</svg>
