<svg width="20" height="20" viewBox="0 0 20 20" fill="none" xmlns="http://www.w3.org/2000/svg">
<path fill-rule="evenodd" clip-rule="evenodd" d="M4.375 1.875C2.99429 1.875 1.875 2.99429 1.875 4.375V7.97335C1.875 8.63639 2.13839 9.27227 2.60723 9.74112L10.5915 17.7254C11.3576 18.4915 12.5824 18.7137 13.5478 18.0817C15.3535 16.8994 16.8994 15.3535 18.0817 13.5478C18.7137 12.5824 18.4915 11.3576 17.7254 10.5915L9.74112 2.60723C9.27227 2.13839 8.63639 1.875 7.97335 1.875H4.375ZM5.3125 6.25C5.83027 6.25 6.25 5.83027 6.25 5.3125C6.25 4.79473 5.83027 4.375 5.3125 4.375C4.79473 4.375 4.375 4.79473 4.375 5.3125C4.375 5.83027 4.79473 6.25 5.3125 6.25Z" fill="currentColor"/>
</svg>
