<svg width="20" height="20" viewBox="0 0 20 20" fill="none" xmlns="http://www.w3.org/2000/svg">
<path fill-rule="evenodd" clip-rule="evenodd" d="M6.25003 5C6.25003 2.92893 7.92896 1.25 10 1.25C12.0711 1.25 13.75 2.92893 13.75 5C13.75 7.07107 12.0711 8.75 10 8.75C7.92896 8.75 6.25003 7.07107 6.25003 5Z" fill="currentColor"/>
<path fill-rule="evenodd" clip-rule="evenodd" d="M3.12607 16.7544C3.19052 13.013 6.24335 10 10 10C13.7568 10 16.8097 13.0131 16.874 16.7547C16.8783 17.0028 16.7353 17.23 16.5097 17.3335C14.5273 18.2432 12.3221 18.75 10.0003 18.75C7.67825 18.75 5.47289 18.2431 3.4903 17.3332C3.26474 17.2297 3.1218 17.0026 3.12607 16.7544Z" fill="currentColor"/>
</svg>
