<svg width="21" height="20" viewBox="0 0 21 20" fill="none" xmlns="http://www.w3.org/2000/svg">
<path d="M7.54167 5.21762V12.5562M12.9583 7.21906V14.5577M13.4125 17.6696L17.8136 15.5014C18.1577 15.3319 18.375 14.9854 18.375 14.6063V3.50108C18.375 2.75716 17.5805 2.27332 16.9052 2.60601L13.4125 4.3267C13.1266 4.46757 12.7901 4.46757 12.5041 4.3267L7.99587 2.10565C7.70994 1.96478 7.37339 1.96478 7.08747 2.10565L2.68642 4.27388C2.34235 4.44339 2.125 4.7899 2.125 5.16895V16.2742C2.125 17.0181 2.91954 17.502 3.59483 17.1693L7.08747 15.4486C7.37339 15.3077 7.70994 15.3077 7.99587 15.4486L12.5041 17.6696C12.7901 17.8105 13.1266 17.8105 13.4125 17.6696Z" stroke="currentColor" stroke-width="1.5" stroke-linecap="round" stroke-linejoin="round"/>
</svg>
