<svg width="20" height="20" viewBox="0 0 20 20" fill="none" xmlns="http://www.w3.org/2000/svg">
<path d="M1.875 5.625C1.875 12.5286 7.47144 18.125 14.375 18.125H16.25C17.2855 18.125 18.125 17.2855 18.125 16.25V15.107C18.125 14.6768 17.8322 14.3018 17.4149 14.1975L13.7289 13.276C13.363 13.1845 12.9778 13.3212 12.7515 13.623L11.943 14.701C11.7083 15.0139 11.3025 15.1522 10.9353 15.0177C8.17949 14.0082 5.9918 11.8205 4.9823 9.06472C4.84778 8.69749 4.98613 8.29165 5.299 8.057L6.37702 7.24849C6.67878 7.02217 6.81551 6.63704 6.72403 6.27111L5.80253 2.58512C5.69819 2.16778 5.32321 1.875 4.89302 1.875H3.75C2.71447 1.875 1.875 2.71447 1.875 3.75V5.625Z" stroke="currentColor" stroke-width="1.5" stroke-linecap="round" stroke-linejoin="round"/>
</svg>
