<svg width="20" height="20" viewBox="0 0 20 20" fill="none" xmlns="http://www.w3.org/2000/svg">
<g clip-path="url(#clip0_10031_118635)">
<path d="M10 4.33333V15.6667M7.16667 13.005L7.99671 13.6276C9.10316 14.4575 10.8971 14.4575 12.0035 13.6276C13.1099 12.7977 13.1099 11.4523 12.0035 10.6224C11.4502 10.2074 10.7251 9.99996 9.99989 10C9.31524 10 8.63074 9.7926 8.10837 9.37763C7.06372 8.54776 7.06372 7.20229 8.10837 6.37242C9.15302 5.54256 10.8467 5.54256 11.8914 6.37242L12.2832 6.6837M18.5 10C18.5 14.6944 14.6944 18.5 10 18.5C5.30558 18.5 1.5 14.6944 1.5 10C1.5 5.30558 5.30558 1.5 10 1.5C14.6944 1.5 18.5 5.30558 18.5 10Z" stroke="currentColor" stroke-width="1.5" stroke-linecap="round" stroke-linejoin="round"/>
</g>
<defs>
<clipPath id="clip0_10031_118635">
<rect width="20" height="20" fill="white"/>
</clipPath>
</defs>
</svg>
