<svg width="20" height="20" viewBox="0 0 20 20" fill="none" xmlns="http://www.w3.org/2000/svg">
<path d="M9.56663 2.91569C9.72675 2.53071 10.2721 2.53071 10.4322 2.91569L12.2039 7.17524C12.2714 7.33753 12.424 7.44843 12.5992 7.46247L17.1978 7.83114C17.6134 7.86446 17.7819 8.38313 17.4653 8.65438L13.9617 11.6556C13.8282 11.7699 13.7699 11.9494 13.8106 12.1203L14.8811 16.6077C14.9778 17.0133 14.5366 17.3339 14.1808 17.1165L10.2438 14.7118C10.0938 14.6202 9.9051 14.6202 9.7551 14.7118L5.8181 17.1165C5.46228 17.3339 5.02106 17.0133 5.11781 16.6077L6.18822 12.1203C6.229 11.9494 6.1707 11.7699 6.03721 11.6556L2.53361 8.65438C2.21695 8.38313 2.38548 7.86446 2.80109 7.83114L7.39963 7.46247C7.57485 7.44843 7.72748 7.33753 7.79498 7.17524L9.56663 2.91569Z" stroke="currentColor" stroke-width="1.5" stroke-linecap="round" stroke-linejoin="round"/>
</svg>
