<svg width="40" height="40" viewBox="0 0 40 40" fill="none" xmlns="http://www.w3.org/2000/svg">
<path d="M31.6775 6.17508C32.3263 5.93916 32.661 5.22195 32.4251 4.57316C32.1892 3.92437 31.472 3.58967 30.8232 3.8256L10.0006 11.3974V5.00034C10.0006 4.30999 9.44097 3.75034 8.75061 3.75034H6.25061C5.56025 3.75034 5.00061 4.30999 5.00061 5.00034V13.2156L3.32316 13.8256C2.67437 14.0615 2.33967 14.7787 2.5756 15.4275C2.81152 16.0763 3.52873 16.411 4.17752 16.1751L31.6775 6.17508Z" fill="currentColor"/>
<path fill-rule="evenodd" clip-rule="evenodd" d="M5.0322 18.5246L30.0006 9.44513V15.1476L36.6775 17.5756C37.3263 17.8115 37.661 18.5287 37.4251 19.1775C37.1892 19.8263 36.472 20.161 35.8232 19.9251L35.0003 19.6259V33.7503H36.2506C36.941 33.7503 37.5006 34.31 37.5006 35.0003C37.5006 35.6907 36.941 36.2503 36.2506 36.2503H3.75061C3.06025 36.2503 2.50061 35.6907 2.50061 35.0003C2.50061 34.31 3.06025 33.7503 3.75061 33.7503H5.00061V18.5359L5.0322 18.5246ZM30.0006 33.7503V17.8078L32.5003 18.7168V33.7503H30.0006ZM15.0006 23.7503C14.3103 23.7503 13.7506 24.31 13.7506 25.0003V32.5003C13.7506 33.1907 14.3103 33.7503 15.0006 33.7503H20.0006C20.691 33.7503 21.2506 33.1907 21.2506 32.5003V25.0003C21.2506 24.31 20.691 23.7503 20.0006 23.7503H15.0006Z" fill="currentColor"/>
</svg>
