<svg width="20" height="20" viewBox="0 0 20 20" fill="none" xmlns="http://www.w3.org/2000/svg">
<path d="M15.8388 3.08754C16.1632 2.96958 16.3305 2.61098 16.2125 2.28658C16.0946 1.96218 15.736 1.79484 15.4116 1.9128L5.00031 5.69872V2.50017C5.00031 2.15499 4.72048 1.87517 4.37531 1.87517H3.12531C2.78013 1.87517 2.50031 2.15499 2.50031 2.50017V6.60781L1.66158 6.9128C1.33718 7.03076 1.16984 7.38936 1.2878 7.71376C1.40576 8.03816 1.76436 8.2055 2.08876 8.08754L15.8388 3.08754Z" fill="currentColor"/>
<path fill-rule="evenodd" clip-rule="evenodd" d="M2.5161 9.26228L15.0003 4.72257V7.57382L18.3388 8.7878C18.6632 8.90576 18.8305 9.26436 18.7125 9.58876C18.5946 9.91316 18.236 10.0805 17.9116 9.96254L17.5002 9.81294V16.8752H18.1253C18.4705 16.8752 18.7503 17.155 18.7503 17.5002C18.7503 17.8453 18.4705 18.1252 18.1253 18.1252H1.87531C1.53013 18.1252 1.25031 17.8453 1.25031 17.5002C1.25031 17.155 1.53013 16.8752 1.87531 16.8752H2.50031V9.26794L2.5161 9.26228ZM15.0003 16.8752V8.9039L16.2502 9.35839V16.8752H15.0003ZM7.50031 11.8752C7.15513 11.8752 6.87531 12.155 6.87531 12.5002V16.2502C6.87531 16.5953 7.15513 16.8752 7.50031 16.8752H10.0003C10.3455 16.8752 10.6253 16.5953 10.6253 16.2502V12.5002C10.6253 12.155 10.3455 11.8752 10.0003 11.8752H7.50031Z" fill="currentColor"/>
</svg>
