<svg width="40" height="40" viewBox="0 0 40 40" fill="none" xmlns="http://www.w3.org/2000/svg">
<path d="M27.259 15.0226L20 8.49508L12.741 15.0226L11.5 13.7451L20 6.08008L28.5 13.7451L27.259 15.0226ZM26.8 17.7351L19.915 23.7376L13.2 17.6651V16.3701L20 10.2451L26.8 16.3701V17.7351ZM21.7 19.9751V17.0001H18.3V19.9751H21.7ZM18.759 27.0276L11.5 20.5001L4.241 27.0276L3 25.7501L11.5 18.0851L20 25.7501L18.759 27.0276ZM35.759 27.0276L28.5 20.5001L21.241 27.0276L20 25.7501L28.5 18.0851L37 25.7501L35.759 27.0276ZM11.5 22.2501L18.3 28.3751V34.5001H4.7V28.3751L11.5 22.2501ZM28.5 22.2501L35.3 28.3751V34.5001H21.7V28.3751L28.5 22.2501ZM13.2 32.7501V29.2501H9.8V32.7501H13.2ZM30.2 32.7501V29.2501H26.8V32.7501H30.2Z" fill="currentColor"/>
</svg>
