<svg width="41" height="40" viewBox="0 0 41 40" fill="none" xmlns="http://www.w3.org/2000/svg">
<path d="M37.7364 33.75C37.7296 34.6295 37.4186 35.4785 36.8575 36.1488C36.2965 36.819 35.5213 37.2678 34.6672 37.4168C33.8132 37.5657 32.9347 37.4052 32.1854 36.9635C31.4362 36.5217 30.8637 35.8267 30.5681 35H25.1981C24.9392 35.7239 24.467 36.3495 23.8456 36.7915C23.2241 37.2335 22.4837 37.4706 21.7248 37.4706C20.966 37.4706 20.2256 37.2335 19.6041 36.7915C18.9827 36.3495 18.5105 35.7239 18.2516 35H12.8816C12.6226 35.7239 12.1504 36.3495 11.529 36.7915C10.9076 37.2335 10.1671 37.4706 9.40828 37.4706C8.64943 37.4706 7.90899 37.2335 7.28757 36.7915C6.66616 36.3495 6.19391 35.7239 5.93501 35H4.48166C4.155 35 3.84173 34.8683 3.61074 34.6339C3.37976 34.3995 3.25 34.0815 3.25 33.75C3.25 33.4185 3.37976 33.1005 3.61074 32.8662C3.84173 32.6317 4.155 32.5 4.48166 32.5H5.93501C6.19391 31.7761 6.66616 31.1506 7.28757 30.7085C7.90899 30.2665 8.64943 30.0294 9.40828 30.0294C10.1671 30.0294 10.9076 30.2665 11.529 30.7085C12.1504 31.1506 12.6226 31.7761 12.8816 32.5H18.2516C18.5105 31.7761 18.9827 31.1506 19.6041 30.7085C20.2256 30.2665 20.966 30.0294 21.7248 30.0294C22.4837 30.0294 23.2241 30.2665 23.8456 30.7085C24.467 31.1506 24.9392 31.7761 25.1981 32.5H30.5681C30.8637 31.6733 31.4362 30.9783 32.1854 30.5365C32.9347 30.0948 33.8132 29.9343 34.6672 30.0832C35.5213 30.2321 36.2965 30.681 36.8575 31.3512C37.4186 32.0215 37.7296 32.8706 37.7364 33.75ZM8.17662 15C8.17662 12.5278 8.89894 10.111 10.2523 8.05538C11.6057 5.99976 13.5293 4.39761 15.7798 3.45151C18.0304 2.50541 20.5068 2.25788 22.896 2.74019C25.2852 3.22251 27.4798 4.41301 29.2023 6.16117C30.9248 7.90931 32.0979 10.1366 32.5731 12.5614C33.0483 14.9862 32.8044 17.4995 31.8722 19.7835C30.94 22.0676 29.3613 24.0198 27.3359 25.3934C25.3104 26.7669 22.9291 27.5 20.4932 27.5C17.2266 27.5 14.0939 26.1831 11.7841 23.8388C9.47422 21.4946 8.17662 18.3152 8.17662 15ZM19.2615 14.4875C19.2643 15.1495 19.5256 15.7833 19.9882 16.25L23.3137 19.6375C23.4288 19.7534 23.5653 19.845 23.7154 19.9072C23.8653 19.9695 24.026 20.0009 24.1882 20C24.3503 20.0009 24.511 19.9695 24.661 19.9072C24.811 19.845 24.9475 19.7534 25.0626 19.6375C25.1781 19.5213 25.2697 19.3831 25.3322 19.2307C25.3947 19.0784 25.4269 18.915 25.4269 18.75C25.4269 18.585 25.3947 18.4216 25.3322 18.2693C25.2697 18.1169 25.1781 17.9787 25.0626 17.8625L21.7248 14.4875V8.75C21.7248 8.41846 21.5951 8.10054 21.3641 7.86615C21.1331 7.6317 20.8199 7.50001 20.4932 7.50001C20.1665 7.50001 19.8533 7.6317 19.6223 7.86615C19.3913 8.10054 19.2615 8.41846 19.2615 8.75V14.4875Z" fill="currentColor"/>
</svg>
