<svg width="40" height="40" viewBox="0 0 40 40" fill="none" xmlns="http://www.w3.org/2000/svg">
<path fill-rule="evenodd" clip-rule="evenodd" d="M20 3.75C11.0254 3.75 3.75 11.0254 3.75 20C3.75 28.9746 11.0254 36.25 20 36.25C28.9746 36.25 36.25 28.9746 36.25 20C36.25 11.0254 28.9746 3.75 20 3.75ZM21.25 10C21.25 9.30964 20.6904 8.75 20 8.75C19.3096 8.75 18.75 9.30964 18.75 10V20C18.75 20.6904 19.3096 21.25 20 21.25H27.5C28.1904 21.25 28.75 20.6904 28.75 20C28.75 19.3096 28.1904 18.75 27.5 18.75H21.25V10Z" fill="currentColor"/>
</svg>
