<svg width="40" height="40" viewBox="0 0 40 40" fill="none" xmlns="http://www.w3.org/2000/svg">
<path fill-rule="evenodd" clip-rule="evenodd" d="M20 3.75C11.0254 3.75 3.75 11.0254 3.75 20C3.75 28.9746 11.0254 36.25 20 36.25C28.9746 36.25 36.25 28.9746 36.25 20C36.25 11.0254 28.9746 3.75 20 3.75ZM14.2448 7.50875C9.52528 9.68683 6.25 14.4609 6.25 20C6.25 27.5939 12.4061 33.75 20 33.75C27.1901 33.75 33.0913 28.2312 33.6985 21.1985L32.9303 20.4303C32.6453 20.1453 32.4081 19.8162 32.2279 19.4557L30.4278 15.8555C30.2174 15.4346 29.6564 15.3436 29.3237 15.6763C28.9696 16.0304 28.4514 16.1647 27.97 16.0271L25.8485 15.421C25.0428 15.1908 24.2066 15.6737 24.0034 16.4867C23.8515 17.0944 24.098 17.7319 24.6191 18.0794L25.597 18.7313C26.5815 19.3877 26.7195 20.7806 25.8828 21.6172L25.5492 21.9508C25.1976 22.3025 25 22.7794 25 23.2767V23.9613C25 24.641 24.8153 25.3079 24.4656 25.8907L22.2746 29.5424C21.639 30.6018 20.4941 31.25 19.2586 31.25C18.2874 31.25 17.5 30.4626 17.5 29.4914V27.5389C17.5 26.0055 16.5665 24.6266 15.1428 24.0571L14.0525 23.621C12.4163 22.9665 11.4565 21.261 11.7463 19.5227L11.758 19.4523C11.8353 18.9883 11.9993 18.5429 12.2414 18.1395L12.3904 17.8911C13.2058 16.5321 14.7874 15.8325 16.3414 16.1433L18.3045 16.5359C19.2623 16.7275 20.2067 16.1516 20.4751 15.2124L20.8225 13.9962C21.0704 13.1287 20.6652 12.2076 19.8582 11.8041L18.75 11.25L18.5984 11.4017C17.8951 12.1049 16.9413 12.5 15.9467 12.5H15.6452C15.2321 12.5 14.835 12.6651 14.5429 12.9572C14.0704 13.4296 13.347 13.5485 12.7493 13.2497C11.9406 12.8453 11.6473 11.838 12.1125 11.0626L14.2448 7.50875Z" fill="currentColor"/>
</svg>
