<svg width="20" height="20" viewBox="0 0 20 20" fill="none" xmlns="http://www.w3.org/2000/svg">
<path fill-rule="evenodd" clip-rule="evenodd" d="M10 1.875C5.51269 1.875 1.875 5.51269 1.875 10C1.875 14.4873 5.51269 18.125 10 18.125C14.4873 18.125 18.125 14.4873 18.125 10C18.125 5.51269 14.4873 1.875 10 1.875ZM7.1224 3.75437C4.76264 4.84341 3.125 7.23046 3.125 10C3.125 13.797 6.20304 16.875 10 16.875C13.5951 16.875 16.5456 14.1156 16.8492 10.5992L16.4652 10.2152C16.3227 10.0726 16.2041 9.90811 16.1139 9.72785L15.2139 7.92775C15.1087 7.71732 14.8282 7.6718 14.6619 7.83817C14.4848 8.0152 14.2257 8.08234 13.985 8.01356L12.9242 7.71049C12.5214 7.59539 12.1033 7.83687 12.0017 8.24333C11.9257 8.54718 12.049 8.86597 12.3096 9.0397L12.7985 9.36566C13.2908 9.69383 13.3597 10.3903 12.9414 10.8086L12.7746 10.9754C12.5988 11.1512 12.5 11.3897 12.5 11.6383V11.9807C12.5 12.3205 12.4077 12.6539 12.2328 12.9453L11.1373 14.7712C10.8195 15.3009 10.2471 15.625 9.62932 15.625C9.1437 15.625 8.75002 15.2313 8.75002 14.7457V13.7694C8.75002 13.0027 8.28324 12.3133 7.57138 12.0285L7.02626 11.8105C6.20815 11.4832 5.72827 10.6305 5.87313 9.76135L5.879 9.72616C5.91767 9.49413 5.99966 9.27144 6.12068 9.06973L6.19519 8.94555C6.60288 8.26607 7.3937 7.91624 8.17071 8.07164L9.15225 8.26795C9.63115 8.36373 10.1034 8.0758 10.2375 7.6062L10.4113 6.99812C10.5352 6.56434 10.3326 6.1038 9.92911 5.90204L9.37502 5.625L9.2992 5.70083C8.94757 6.05246 8.47065 6.25 7.97337 6.25H7.8226C7.61606 6.25 7.41748 6.33254 7.27143 6.47859C7.03521 6.71481 6.67348 6.77423 6.37467 6.62483C5.97029 6.42264 5.82363 5.91899 6.05624 5.53131L7.1224 3.75437Z" fill="currentColor"/>
</svg>
