<svg width="41" height="40" viewBox="0 0 41 40" fill="none" xmlns="http://www.w3.org/2000/svg">
<path d="M24.0829 10.3731C25.6747 11.3861 26.791 13.1002 26.9942 15.0899C27.6434 15.3978 28.3639 15.5748 29.1279 15.5748C31.9168 15.5748 34.1773 13.2807 34.1773 10.4508C34.1773 7.62028 31.9168 5.32617 29.1279 5.32617C26.3656 5.32705 24.1249 7.58013 24.0829 10.3731ZM20.7748 20.8656C23.5638 20.8656 25.8242 18.571 25.8242 15.741C25.8242 12.911 23.5633 10.6169 20.7748 10.6169C17.9864 10.6169 15.7247 12.9114 15.7247 15.7414C15.7247 18.5714 17.9864 20.8656 20.7748 20.8656ZM22.9167 21.2148H18.6322C15.0672 21.2148 12.167 24.1587 12.167 27.7767V33.0944L12.1804 33.1777L12.5413 33.2924C15.9433 34.3711 18.899 34.7309 21.3317 34.7309C26.0833 34.7309 28.8375 33.3561 29.0072 33.2684L29.3444 33.0953H29.3806V27.7767C29.3818 24.1587 26.4816 21.2148 22.9167 21.2148ZM31.2706 15.9246H27.0191C26.9732 17.6509 26.247 19.2055 25.0985 20.3235C28.2672 21.2798 30.5857 24.262 30.5857 27.7845V29.4232C34.7835 29.2671 37.2025 28.0597 37.3619 27.9785L37.6991 27.805H37.7352V22.4855C37.7352 18.868 34.8351 15.9246 31.2706 15.9246ZM11.9149 15.5757C12.9026 15.5757 13.8217 15.2831 14.6002 14.7847C14.8477 13.1465 15.7131 11.7148 16.9492 10.7398C16.9544 10.6439 16.9634 10.5489 16.9634 10.4521C16.9634 7.62156 14.7025 5.32748 11.9149 5.32748C9.12555 5.32748 6.86551 7.62156 6.86551 10.4521C6.86551 13.2812 9.12555 15.5757 11.9149 15.5757ZM16.4495 20.3235C15.3066 19.2111 14.5831 17.6649 14.5302 15.949C14.3725 15.9373 14.2165 15.9246 14.0559 15.9246H9.7717C6.20684 15.9246 3.30664 18.868 3.30664 22.4855V27.8041L3.31996 27.8861L3.68087 28.0016C6.41007 28.8664 8.84579 29.265 10.9614 29.3905V27.7845C10.9623 24.262 13.2799 21.2807 16.4495 20.3235Z" fill="currentColor"/>
</svg>
