<svg width="40" height="40" viewBox="0 0 40 40" fill="none" xmlns="http://www.w3.org/2000/svg">
<path d="M19.4083 34.8511L19.3974 34.8452L19.3596 34.8248C19.3275 34.8073 19.2815 34.7821 19.2226 34.7493C19.1049 34.6836 18.9354 34.5874 18.7216 34.4616C18.2942 34.2101 17.6886 33.8398 16.9642 33.3583C15.5179 32.3968 13.5854 30.9835 11.6477 29.1772C7.81302 25.6026 3.75 20.2918 3.75 13.75C3.75 8.86991 7.856 5 12.8125 5C15.7273 5 18.3372 6.33181 20 8.41933C21.6628 6.33181 24.2727 5 27.1875 5C32.144 5 36.25 8.86991 36.25 13.75C36.25 20.2918 32.187 25.6026 28.3523 29.1772C26.4146 30.9835 24.4821 32.3968 23.0358 33.3583C22.3114 33.8398 21.7058 34.2101 21.2784 34.4616C21.0646 34.5874 20.8951 34.6836 20.7774 34.7493C20.7185 34.7821 20.6725 34.8073 20.6404 34.8248L20.6026 34.8452L20.5917 34.8511L20.5871 34.8535C20.2205 35.0482 19.7795 35.0482 19.4129 34.8535L19.4083 34.8511Z" fill="currentColor"/>
</svg>
