<svg width="20" height="20" viewBox="0 0 20 20" fill="none" xmlns="http://www.w3.org/2000/svg">
<path fill-rule="evenodd" clip-rule="evenodd" d="M10 1.875C5.51269 1.875 1.875 5.51269 1.875 10C1.875 14.4873 5.51269 18.125 10 18.125C14.4873 18.125 18.125 14.4873 18.125 10C18.125 5.51269 14.4873 1.875 10 1.875ZM13.5669 10.4419C13.6842 10.3247 13.75 10.1658 13.75 10C13.75 9.83424 13.6842 9.67527 13.5669 9.55806L11.0669 7.05806C10.8229 6.81398 10.4271 6.81398 10.1831 7.05806C9.93898 7.30214 9.93898 7.69786 10.1831 7.94194L11.6161 9.375L6.875 9.375C6.52982 9.375 6.25 9.65482 6.25 10C6.25 10.3452 6.52982 10.625 6.875 10.625L11.6161 10.625L10.1831 12.0581C9.93898 12.3021 9.93898 12.6979 10.1831 12.9419C10.4271 13.186 10.8229 13.186 11.0669 12.9419L13.5669 10.4419Z" fill="currentColor"/>
</svg>
