<svg width="40" height="40" viewBox="0 0 40 40" fill="none" xmlns="http://www.w3.org/2000/svg">
<path fill-rule="evenodd" clip-rule="evenodd" d="M3.75 20C3.75 11.0254 11.0254 3.75 20 3.75C28.9746 3.75 36.25 11.0254 36.25 20C36.25 28.9746 28.9746 36.25 20 36.25C11.0254 36.25 3.75 28.9746 3.75 20ZM26.0172 16.9765C26.4184 16.4148 26.2883 15.6341 25.7265 15.2328C25.1648 14.8316 24.3841 14.9617 23.9828 15.5235L18.5905 23.0727L15.8839 20.3661C15.3957 19.878 14.6043 19.878 14.1161 20.3661C13.628 20.8543 13.628 21.6457 14.1161 22.1339L17.8661 25.8839C18.1259 26.1437 18.4869 26.276 18.8531 26.2457C19.2193 26.2154 19.5536 26.0255 19.7672 25.7265L26.0172 16.9765Z" fill="currentColor"/>
</svg>
