<svg width="40" height="40" viewBox="0 0 40 40" fill="none" xmlns="http://www.w3.org/2000/svg">
<path fill-rule="evenodd" clip-rule="evenodd" d="M20 3.75C11.0254 3.75 3.75 11.0254 3.75 20C3.75 28.9746 11.0254 36.25 20 36.25C28.9746 36.25 36.25 28.9746 36.25 20C36.25 11.0254 28.9746 3.75 20 3.75ZM27.1339 20.8839C27.3683 20.6495 27.5 20.3315 27.5 20C27.5 19.6685 27.3683 19.3505 27.1339 19.1161L22.1339 14.1161C21.6457 13.628 20.8543 13.628 20.3661 14.1161C19.878 14.6043 19.878 15.3957 20.3661 15.8839L23.2322 18.75L13.75 18.75C13.0596 18.75 12.5 19.3096 12.5 20C12.5 20.6904 13.0596 21.25 13.75 21.25L23.2322 21.25L20.3661 24.1161C19.878 24.6043 19.878 25.3957 20.3661 25.8839C20.8543 26.372 21.6457 26.372 22.1339 25.8839L27.1339 20.8839Z" fill="currentColor"/>
</svg>
