<svg width="41" height="40" viewBox="0 0 41 40" fill="none" xmlns="http://www.w3.org/2000/svg">
<path d="M8.7219 6.36523C5.94546 6.36523 3.67383 8.63688 3.67383 11.4133C3.67383 14.1897 5.94546 16.4614 8.7219 16.4614C11.4983 16.4614 13.77 14.1897 13.77 11.4133C13.77 8.63688 11.4983 6.36523 8.7219 6.36523Z" fill="currentColor"/>
<path d="M3.67383 23.5185V33.6449C3.67383 34.5517 4.43104 35.3074 5.33969 35.3074H5.39017C6.29883 35.3074 7.05604 34.5517 7.05604 33.6449V31.9319C7.05604 31.0251 7.81325 30.2694 8.7219 30.2694C9.63054 30.2694 10.3877 31.0251 10.3877 31.9319V33.6449C10.3877 34.5517 11.145 35.3074 12.0536 35.3074H12.1041C13.0128 35.3074 13.77 34.5517 13.77 33.6449V23.5185C13.77 20.7476 11.4983 18.4805 8.7219 18.4805H8.67142C5.94546 18.5309 3.67383 20.7476 3.67383 23.5185Z" fill="currentColor"/>
<path d="M18.9499 13.3315L19.2032 13.584C19.7605 14.1393 20.5711 14.1898 21.1791 13.7354C21.2298 13.6849 21.3311 13.6344 21.3818 13.584C22.0911 13.0792 23.155 13.2306 23.5603 13.9878C24.4217 15.4517 26.0429 16.4614 27.9176 16.4614C29.7921 16.4614 31.4135 15.4517 32.2747 13.9878C32.7307 13.2306 33.744 13.0792 34.4534 13.584C34.504 13.6344 34.6054 13.6849 34.656 13.7354C35.264 14.1898 36.1253 14.1393 36.6319 13.584L36.8853 13.3315C37.5439 12.6753 37.4426 11.6153 36.7333 11.0599C35.4666 10.1008 34.0987 9.34362 32.6294 8.83879C32.3254 8.73783 32.0721 8.58639 31.8694 8.33398C30.9575 7.12244 29.4881 6.36523 27.8669 6.36523C26.2456 6.36523 24.7763 7.17293 23.8643 8.33398C23.6617 8.58639 23.4083 8.73783 23.1043 8.83879C21.6351 9.34362 20.2671 10.1008 19.0005 11.0599C18.3419 11.6153 18.2912 12.6248 18.9499 13.3315Z" fill="currentColor"/>
<path d="M20.5148 31.9218H23.9317C24.2835 31.9218 24.585 32.225 24.585 32.5787V33.4377C24.585 34.4483 25.3889 35.3074 26.4441 35.3074H29.459C30.464 35.3074 31.3182 34.4989 31.3182 33.4377V32.5787C31.3182 32.225 31.6197 31.9218 31.9715 31.9218H35.2879C35.7903 31.9218 36.0918 31.4164 35.9411 31.0122L32.4237 21.6134C31.7202 19.6932 29.9113 18.4805 27.9014 18.4805C25.8914 18.4805 24.0825 19.7437 23.379 21.6134L19.8616 31.0122C19.7108 31.4164 20.0626 31.9218 20.5148 31.9218Z" fill="currentColor"/>
</svg>
