<svg width="40" height="40" viewBox="0 0 40 40" fill="none" xmlns="http://www.w3.org/2000/svg">
<path d="M6.36257 21.9264V11.3014C6.36257 10.566 5.76635 9.96973 5.03093 9.96973C4.29544 9.96973 3.69922 10.566 3.69922 11.3014V28.6981C3.69922 29.4336 4.29544 30.0298 5.03093 30.0298C5.76635 30.0298 6.36257 29.4336 6.36257 28.6981V26.2032L33.6393 26.1391V28.634C33.6393 29.3694 34.2356 29.9657 34.971 29.9657C35.7064 29.9657 36.3026 29.3694 36.3026 28.634V26.1391V22.6557V21.8622L6.36257 21.9264Z" fill="currentColor"/>
<path d="M36.3027 20.7857H16.0586V15.7707C16.0586 14.3155 17.2383 13.1357 18.6936 13.1357H30.9832C33.9211 13.1357 36.3027 15.5174 36.3027 18.4553V20.7857Z" fill="currentColor"/>
<path d="M11.3194 20.2121C13.115 20.2121 14.5705 18.7566 14.5705 16.961C14.5705 15.1655 13.115 13.71 11.3194 13.71C9.52392 13.71 8.06836 15.1655 8.06836 16.961C8.06836 18.7566 9.52392 20.2121 11.3194 20.2121Z" fill="currentColor"/>
</svg>
