<svg width="40" height="40" viewBox="0 0 40 40" fill="none" xmlns="http://www.w3.org/2000/svg">
<path fill-rule="evenodd" clip-rule="evenodd" d="M2.5 7.5C2.5 4.73858 4.73858 2.5 7.5 2.5H9.78604C11.22 2.5 12.47 3.47593 12.8177 4.86708L14.6607 12.239C14.9657 13.4588 14.5099 14.7426 13.504 15.497L11.348 17.114C11.1241 17.2819 11.0754 17.5278 11.1383 17.6995C13.0308 22.8658 17.1342 26.9692 22.3005 28.8617C22.4722 28.9246 22.7181 28.8759 22.886 28.652L24.503 26.496C25.2574 25.4901 26.5412 25.0343 27.761 25.3393L35.1329 27.1823C36.5241 27.53 37.5 28.78 37.5 30.214V32.5C37.5 35.2614 35.2614 37.5 32.5 37.5H28.75C14.2525 37.5 2.5 25.7475 2.5 11.25V7.5Z" fill="currentColor"/>
</svg>
