<svg width="40" height="40" viewBox="0 0 40 40" fill="none" xmlns="http://www.w3.org/2000/svg">
<path d="M17.3212 14.3268C17.7173 14.0121 18.1879 13.7833 18.6923 13.6402V18.5135C18.1783 18.3675 17.709 18.1351 17.3212 17.827C16.6346 17.2817 16.369 16.64 16.369 16.0769C16.369 15.5138 16.6346 14.8722 17.3212 14.3268Z" fill="currentColor"/>
<path d="M21.3077 26.3843V21.4617C21.9132 21.6089 22.465 21.8583 22.9141 22.1951C23.6577 22.7528 23.9231 23.391 23.9231 23.923C23.9231 24.455 23.6577 25.0932 22.9141 25.6509C22.465 25.9878 21.9132 26.2371 21.3077 26.3843Z" fill="currentColor"/>
<path fill-rule="evenodd" clip-rule="evenodd" d="M20 3C10.6112 3 3 10.6112 3 20C3 29.3888 10.6112 37 20 37C29.3888 37 37 29.3888 37 20C37 10.6112 29.3888 3 20 3ZM21.3077 9.53846C21.3077 8.81624 20.7222 8.23077 20 8.23077C19.2778 8.23077 18.6923 8.81624 18.6923 9.53846V10.9606C17.5993 11.1542 16.557 11.5937 15.6943 12.279C14.4523 13.2657 13.7536 14.632 13.7536 16.0769C13.7536 17.5218 14.4523 18.8882 15.6943 19.8749C16.5704 20.5708 17.6159 21.0026 18.6923 21.1932V26.3843C18.087 26.237 17.5353 25.9877 17.0863 25.6509L15.5539 24.5016C14.9761 24.0682 14.1564 24.1853 13.7231 24.7631C13.2897 25.3409 13.4068 26.1605 13.9846 26.5939L15.517 27.7432C16.4467 28.4405 17.5554 28.8671 18.6923 29.0498V30.4615C18.6923 31.1838 19.2778 31.7692 20 31.7692C20.7222 31.7692 21.3077 31.1838 21.3077 30.4615V29.0499C22.4448 28.8672 23.5536 28.4406 24.4834 27.7432C25.7825 26.7688 26.5385 25.399 26.5385 23.923C26.5385 22.447 25.7825 21.0772 24.4834 20.1029C23.5536 19.4055 22.4448 18.9788 21.3077 18.7962V13.6404C21.8119 13.7834 22.2823 14.0122 22.6784 14.3268L23.4018 14.9015C23.9673 15.3507 24.7899 15.2565 25.2391 14.691C25.6883 14.1255 25.5941 13.3029 25.0286 12.8536L24.3052 12.279C23.4427 11.5938 22.4006 11.1544 21.3077 10.9607V9.53846Z" fill="currentColor"/>
</svg>
