<svg width="41" height="40" viewBox="0 0 41 40" fill="none" xmlns="http://www.w3.org/2000/svg">
<g clip-path="url(#clip0_10013_118132)">
<path d="M12.7317 3.33301C12.1999 3.33301 11.7695 3.76979 11.7695 4.30957V5.38483C8.51393 5.8638 5.99609 8.6875 5.99609 12.1221V13.1975C6.30715 13.1331 6.62873 13.0986 6.95833 13.0986H19.5956V12.1221C19.5956 8.6875 16.9495 5.8638 13.6939 5.38483V4.30957C13.6939 3.76979 13.2636 3.33301 12.7317 3.33301Z" fill="currentColor"/>
<path d="M25.3704 13.0986V10.9656C26.488 10.5611 27.2949 9.4873 27.2949 8.21582V4.30957C27.2949 3.76979 26.8645 3.33301 26.3326 3.33301H22.4837C21.9519 3.33301 21.5215 3.76979 21.5215 4.30957V8.21582C21.5215 9.4873 22.3283 10.5611 23.4459 10.9656V13.0986H25.3704Z" fill="currentColor"/>
<path d="M33.0677 13.0986V10.9656C34.1853 10.5611 34.9921 9.4873 34.9921 8.21582V4.30957C34.9921 3.76979 34.5618 3.33301 34.0299 3.33301H30.181C29.6491 3.33301 29.2188 3.76979 29.2188 4.30957V8.21582C29.2188 9.4873 30.0256 10.5611 31.1432 10.9656V13.0986H33.0677Z" fill="currentColor"/>
<path d="M10.7437 36.6663C12.1608 36.6663 13.3096 35.5004 13.3096 34.0622C13.3096 32.6239 12.1608 31.458 10.7437 31.458C9.32655 31.458 8.17773 32.6239 8.17773 34.0622C8.17773 35.5004 9.32655 36.6663 10.7437 36.6663Z" fill="currentColor"/>
<path d="M30.1792 36.6663C31.5964 36.6663 32.7452 35.5004 32.7452 34.0622C32.7452 32.6239 31.5964 31.458 30.1792 31.458C28.7621 31.458 27.6133 32.6239 27.6133 34.0622C27.6133 35.5004 28.7621 36.6663 30.1792 36.6663Z" fill="currentColor"/>
<path d="M34.0297 15.0518H6.95896C5.36717 15.0518 4.07227 16.366 4.07227 17.9814V31.7835C4.07227 32.3233 4.50264 32.7601 5.0345 32.7601H7.49434C8.1622 31.5982 9.32586 30.4163 10.7437 30.4163C12.1616 30.4163 13.4536 31.5982 14.1214 32.7601H26.8673C27.5351 31.5982 28.7188 30.4163 30.1367 30.4163C31.5545 30.4163 32.8265 31.5982 33.4943 32.7601H35.9542C36.4861 32.7601 36.9164 32.3233 36.9164 31.7835V17.9814C36.9164 16.366 35.6215 15.0518 34.0297 15.0518Z" fill="currentColor"/>
</g>
<defs>
<clipPath id="clip0_10013_118132">
<rect width="32.8442" height="33.3333" fill="white" transform="translate(4.07227 3.33301)"/>
</clipPath>
</defs>
</svg>
