<svg width="41" height="40" viewBox="0 0 41 40" fill="none" xmlns="http://www.w3.org/2000/svg">
<path d="M24.749 9.75381C22.8398 9.75381 20.4092 9.4082 17.8972 8.77912C15.3619 8.1445 13.033 7.294 11.3395 6.3834C9.38231 5.33203 8.50507 4.32526 8.73238 3.39107C9.2552 1.23637 15.5467 2.82301 18.9541 3.60573C19.2547 3.67465 19.4435 3.97757 19.3752 4.2827C19.307 4.58709 19.0086 4.77909 18.7086 4.7098C13.0921 3.42037 9.92553 3.20718 9.81585 3.66193C9.78758 3.77838 10.0519 4.41075 11.8609 5.38289C13.4767 6.25111 15.7156 7.067 18.1644 7.6802C20.5914 8.28789 22.9269 8.62173 24.7482 8.62173C24.765 8.62173 24.781 8.62173 24.7969 8.62143C26.8441 8.61473 27.3684 8.17989 27.396 8.0642C27.4178 7.97535 26.6805 7.08527 25.7604 6.45143C25.5055 6.27602 25.4387 5.92372 25.6123 5.66502C25.7843 5.40706 26.1308 5.33815 26.3864 5.51467C27.5606 6.32356 28.6581 7.60097 28.4795 8.33504C28.2522 9.26889 27.0148 9.7465 24.8005 9.7535C24.7831 9.75381 24.7664 9.75381 24.749 9.75381Z" fill="currentColor"/>
<path d="M29.9743 37.6905C34.2234 37.6905 37.6809 34.1819 37.6809 29.8695C37.6809 25.5523 34.2234 22.04 29.9743 22.04C25.7202 22.04 22.2598 25.5523 22.2598 29.8695C22.2598 34.1819 25.7202 37.6905 29.9743 37.6905ZM26.3331 28.0056H28.129V26.1737C28.129 25.1459 28.9533 24.3097 29.9656 24.3097C30.978 24.3097 31.8023 25.1459 31.8023 26.1737V28.0056H33.6076C34.6199 28.0056 35.4442 28.8417 35.4442 29.8695C35.4442 30.8973 34.6199 31.7335 33.6076 31.7335H31.8023V33.5569C31.8023 34.5843 30.978 35.4204 29.9656 35.4204C28.9533 35.4204 28.129 34.5843 28.129 33.5569V31.7335H26.3331C25.3208 31.7335 24.4965 30.8973 24.4965 29.8695C24.4965 28.8417 25.3208 28.0056 26.3331 28.0056Z" fill="currentColor"/>
<path d="M34.7467 14.5084L31.735 3.66314C31.5713 3.0971 31.0359 2.71223 30.4484 2.75752L19.3755 3.57258C19.3608 3.57258 19.3534 3.57258 19.3385 3.58013C19.1377 3.59524 18.9294 3.6707 18.7584 3.79148C18.6467 3.86693 18.5353 3.98016 18.4536 4.10089L18.342 4.2594L16.5572 6.84807C17.1076 7.01409 17.6727 7.1726 18.2528 7.316C20.4242 7.85933 22.536 8.18395 24.2464 8.23672C24.3283 7.83672 24.4918 7.45183 24.7299 7.10465C25.0124 6.69712 25.3767 6.38015 25.7932 6.16126C26.2691 5.91223 26.8119 5.79145 27.3475 5.82167C27.8904 5.85184 28.4258 6.02541 28.9016 6.36504C30.2476 7.3311 30.5823 9.22541 29.6378 10.599C29.0578 11.4443 28.1209 11.8971 27.1765 11.8971C26.5816 11.8971 25.9791 11.716 25.4587 11.3462C25.0124 11.0292 24.6703 10.6141 24.4621 10.1235C22.5658 10.0933 20.2233 9.75372 17.8066 9.14241C16.9959 8.93864 16.2003 8.71218 15.4418 8.46318L3.51377 25.7386C3.3353 25.9953 3.26831 26.3046 3.32786 26.6066C3.37996 26.916 3.54354 27.1802 3.79627 27.3537L18.0371 37.4896C18.5576 37.8519 19.2715 37.7235 19.6284 37.1953L22.0229 33.7386C21.5396 32.7273 21.2422 31.6103 21.1752 30.433L19.1824 33.3084C18.922 33.6783 18.5055 33.882 18.089 33.882C17.8288 33.882 17.5611 33.799 17.3305 33.633L7.59636 26.7046C7.30623 26.5084 7.11306 26.1915 7.05351 25.8367C6.99396 25.482 7.0684 25.1273 7.27664 24.833L15.308 13.1953C15.5161 12.9009 15.8211 12.6971 16.1705 12.6367C16.52 12.5763 16.8695 12.6519 17.1595 12.8632L26.8938 19.7914C27.1765 19.9876 27.3773 20.2971 27.4441 20.6518C27.4813 20.8707 27.459 21.0896 27.3922 21.3009C28.2101 21.0443 29.0726 20.9085 29.9724 20.9085C30.27 20.9085 30.5599 20.9235 30.8501 20.9537L34.5682 15.565C34.7839 15.2556 34.8433 14.8707 34.7467 14.5084Z" fill="currentColor"/>
<path fill-rule="evenodd" clip-rule="evenodd" d="M22.295 18.4536C22.6504 17.9283 22.519 17.21 22.0013 16.8493C21.4837 16.4885 20.7759 16.622 20.4205 17.1474L20.0799 17.6508C19.4241 17.3604 18.7094 17.1898 17.9889 17.1982C16.8671 17.2112 15.8504 17.6674 15.2458 18.5611C14.6412 19.4547 14.5869 20.5816 14.9778 21.6487C15.2289 22.3343 15.6425 22.9499 16.1451 23.4667L14.6882 25.6201C14.4778 25.3627 14.3146 25.0927 14.2088 24.826L13.7251 23.6065C13.4906 23.0154 12.8283 22.7291 12.2458 22.9671C11.6633 23.2051 11.3813 23.8772 11.6157 24.4684L12.0995 25.6879C12.38 26.3947 12.8301 27.0323 13.37 27.5686L13.0349 28.0639C12.6794 28.5892 12.8109 29.3075 13.3286 29.6682C13.8462 30.0289 14.554 29.8954 14.9094 29.3701L15.2444 28.8749C15.9316 29.1936 16.6796 29.391 17.4304 29.4027C18.5734 29.4206 19.6321 28.9931 20.2536 28.0745C20.8751 27.156 20.8879 25.9996 20.4609 24.9234C20.1805 24.2165 19.7303 23.5789 19.1903 23.0425L20.6268 20.9193C20.7856 21.1337 20.9088 21.357 20.9901 21.579L21.2072 22.1715C21.426 22.7688 22.0805 23.073 22.669 22.8509C23.2576 22.6288 23.5573 21.9646 23.3385 21.3673L23.1214 20.7748C22.8703 20.0894 22.4569 19.4739 21.9544 18.9571L22.295 18.4536ZM18.0148 19.5057C18.2483 19.503 18.4981 19.5394 18.7524 19.613L17.4726 21.5047C17.3136 21.2901 17.1905 21.0667 17.1091 20.8445C16.9214 20.3323 17.0161 20.0214 17.1203 19.8674C17.2245 19.7134 17.4764 19.512 18.0148 19.5057ZM16.5627 26.9264L17.8721 24.991C18.0826 25.2484 18.2458 25.5185 18.3516 25.7853C18.5696 26.3347 18.4665 26.6392 18.3791 26.7683C18.2918 26.8974 18.0488 27.1044 17.4654 27.0954C17.1821 27.0909 16.875 27.0334 16.5627 26.9264Z" fill="currentColor"/>
</svg>
