<svg width="41" height="40" viewBox="0 0 41 40" fill="none" xmlns="http://www.w3.org/2000/svg">
<path d="M22.1475 28.7276H18.8528C18.7844 28.8454 18.6272 29.1225 18.47 29.4066C16.0297 33.6603 10.5066 34.9282 6.54186 32.1431C2.5567 29.3373 1.85264 23.7325 4.84663 19.8459C6.0497 18.2802 6.93833 16.465 7.91582 14.733C8.65407 13.4236 9.63837 12.4329 10.9645 11.747C11.2516 11.5738 11.4703 11.3106 11.5797 10.9919C12.2359 8.94119 14.02 7.86041 15.9613 8.38001C17.8412 8.88579 18.8049 10.7009 18.4631 12.7862C18.3811 13.2712 18.8391 13.8393 19.0373 14.3727C19.2629 14.9894 19.6731 15.0656 20.2951 15.1349C21.8673 15.3011 22.045 14.0402 22.4825 13.2227C22.6329 12.9456 22.5098 12.7724 22.4757 12.5576C22.0313 9.93192 22.9473 8.97581 24.8066 8.40772C26.7206 7.82577 28.6072 8.89962 29.2771 10.881C29.3864 11.2136 29.7009 11.5669 30.0153 11.7332C31.2389 12.3913 32.2027 13.2781 32.9205 14.4836C34.1509 16.5551 35.4086 18.6127 36.6869 20.6565C39.1614 24.5986 38.0404 29.843 34.1509 32.3163C30.2683 34.7966 25.1347 33.6119 22.6876 29.6698C22.6807 29.656 22.6739 29.649 22.6671 29.6352C22.462 29.3096 22.2774 28.9632 22.1475 28.7276ZM16.6107 25.2705C16.6449 22.2707 14.2729 19.8043 11.3131 19.7627C8.40117 19.7212 5.89932 22.1806 5.85147 25.1458C5.80362 28.1526 8.25077 30.6674 11.2311 30.6744C14.2114 30.6882 16.5902 28.305 16.6107 25.2705ZM35.0942 25.222C35.0942 22.2361 32.6744 19.7766 29.7419 19.7627C26.8163 19.7489 24.3691 22.2014 24.3213 25.1874C24.2803 28.1872 26.7479 30.6813 29.7488 30.6744C32.7086 30.6674 35.101 28.2288 35.0942 25.222ZM20.3498 24.0581C19.7482 24.1066 19.3791 24.5223 19.3381 25.2082C19.304 25.8179 19.762 26.3444 20.3703 26.386H20.5207C21.2111 26.3444 21.6076 25.9564 21.628 25.2359C21.6417 24.5292 21.1427 24.0443 20.3498 24.0581Z" fill="currentColor"/>
</svg>
