<svg width="40" height="40" viewBox="0 0 40 40" fill="none" xmlns="http://www.w3.org/2000/svg">
<path d="M12.9625 18.8672L11.8867 22.2517H14.0382L12.9625 18.8672Z" fill="currentColor"/>
<path d="M33.6855 4.24512H16.4735V9.70398H20.7765V11.8875H6.79171C4.96293 11.8875 3.56445 13.3068 3.56445 15.1628V27.1723C3.56445 29.0284 4.96293 30.4477 6.79171 30.4477H7.86746V36.0157L14.6447 30.4477H21.8522V22.8053H33.6855C35.5143 22.8053 36.9127 21.386 36.9127 19.5299V7.52044C36.9127 5.66442 35.5143 4.24512 33.6855 4.24512ZM15.1826 25.9714L14.6447 24.2246H11.3099L10.6644 25.9714H8.08261L11.6326 16.2546H14.2144L17.7644 25.9714H15.1826ZM31.534 17.3464V19.5299C30.1355 19.5299 28.6295 19.0932 27.3386 18.4382C26.0477 19.0932 24.5416 19.4208 23.0355 19.5299L22.928 17.3464C23.681 17.3464 24.434 17.2372 25.187 17.0189C24.2189 16.0363 23.5734 14.8353 23.2507 13.5252H25.5098C25.8325 14.5078 26.478 15.272 27.231 15.9271C28.4143 14.9445 29.1673 13.5252 29.2749 11.8875H22.8204V9.70398H26.0477V7.52044H28.1992V9.70398H31.7491L31.8567 10.7958C31.9643 13.0885 31.1037 15.3812 29.4901 17.0189C30.2431 17.2372 30.8885 17.3464 31.534 17.3464Z" fill="currentColor"/>
</svg>
