<svg width="40" height="40" viewBox="0 0 40 40" fill="none" xmlns="http://www.w3.org/2000/svg">
<path fill-rule="evenodd" clip-rule="evenodd" d="M8.75 3.75C5.98858 3.75 3.75 5.98858 3.75 8.75V15.9467C3.75 17.2728 4.27678 18.5445 5.21447 19.4822L21.183 35.4508C22.7152 36.983 25.1649 37.4273 27.0956 36.1633C30.7071 33.7989 33.7989 30.7071 36.1633 27.0956C37.4273 25.1649 36.983 22.7152 35.4508 21.183L19.4822 5.21447C18.5445 4.27678 17.2728 3.75 15.9467 3.75H8.75ZM10.625 12.5C11.6605 12.5 12.5 11.6605 12.5 10.625C12.5 9.58947 11.6605 8.75 10.625 8.75C9.58947 8.75 8.75 9.58947 8.75 10.625C8.75 11.6605 9.58947 12.5 10.625 12.5Z" fill="currentColor"/>
</svg>
