<svg width="40" height="40" viewBox="0 0 40 40" fill="none" xmlns="http://www.w3.org/2000/svg">
<path fill-rule="evenodd" clip-rule="evenodd" d="M12.5001 10C12.5001 5.85786 15.8579 2.5 20.0001 2.5C24.1422 2.5 27.5001 5.85786 27.5001 10C27.5001 14.1421 24.1422 17.5 20.0001 17.5C15.8579 17.5 12.5001 14.1421 12.5001 10Z" fill="currentColor"/>
<path fill-rule="evenodd" clip-rule="evenodd" d="M6.25214 33.5089C6.38104 26.0259 12.4867 20 20.0001 20C27.5136 20 33.6194 26.0262 33.748 33.5094C33.7565 34.0057 33.4706 34.46 33.0195 34.667C29.0546 36.4863 24.6443 37.5 20.0006 37.5C15.3565 37.5 10.9458 36.4861 6.9806 34.6665C6.52948 34.4595 6.24359 34.0052 6.25214 33.5089Z" fill="currentColor"/>
</svg>
