<svg width="40" height="40" viewBox="0 0 40 40" fill="none" xmlns="http://www.w3.org/2000/svg">
<path fill-rule="evenodd" clip-rule="evenodd" d="M15.6691 5.00529C17.5932 1.67011 22.4068 1.67011 24.3309 5.00529L36.5882 26.2511C38.5112 29.5845 36.1055 33.7497 32.2572 33.7497H7.74281C3.89452 33.7497 1.4888 29.5845 3.41188 26.2511L15.6691 5.00529ZM20.0004 13.7496C20.6907 13.7496 21.2504 14.3093 21.2504 14.9996V21.2496C21.2504 21.94 20.6907 22.4996 20.0004 22.4996C19.31 22.4996 18.7504 21.94 18.7504 21.2496V14.9996C18.7504 14.3093 19.31 13.7496 20.0004 13.7496ZM20.0004 27.4996C20.6907 27.4996 21.2504 26.94 21.2504 26.2496C21.2504 25.5593 20.6907 24.9996 20.0004 24.9996C19.31 24.9996 18.7504 25.5593 18.7504 26.2496C18.7504 26.94 19.31 27.4996 20.0004 27.4996Z" fill="currentColor"/>
</svg>
