<?xml version="1.0" encoding="UTF-8"?> <svg xmlns="http://www.w3.org/2000/svg" width="52" height="52" viewBox="0 0 52 52" fill="none"><path d="M48.75 43.875C48.7411 45.0183 48.3307 46.122 47.5905 46.9934C46.8503 47.8647 45.8275 48.4482 44.7007 48.6418C43.5739 48.8354 42.4149 48.6268 41.4263 48.0525C40.4378 47.4782 39.6825 46.5747 39.2925 45.5H32.2075C31.8659 46.4411 31.2429 47.2543 30.423 47.8289C29.6031 48.4035 28.6262 48.7118 27.625 48.7118C26.6238 48.7118 25.6469 48.4035 24.827 47.8289C24.0071 47.2543 23.3841 46.4411 23.0425 45.5H15.9575C15.6159 46.4411 14.9929 47.2543 14.173 47.8289C13.3531 48.4035 12.3762 48.7118 11.375 48.7118C10.3738 48.7118 9.39689 48.4035 8.57702 47.8289C7.75715 47.2543 7.13408 46.4411 6.7925 45.5H4.875C4.44402 45.5 4.0307 45.3288 3.72595 45.0241C3.4212 44.7193 3.25 44.306 3.25 43.875C3.25 43.444 3.4212 43.0307 3.72595 42.726C4.0307 42.4212 4.44402 42.25 4.875 42.25H6.7925C7.13408 41.3089 7.75715 40.4958 8.57702 39.9211C9.39689 39.3465 10.3738 39.0382 11.375 39.0382C12.3762 39.0382 13.3531 39.3465 14.173 39.9211C14.9929 40.4958 15.6159 41.3089 15.9575 42.25H23.0425C23.3841 41.3089 24.0071 40.4958 24.827 39.9211C25.6469 39.3465 26.6238 39.0382 27.625 39.0382C28.6262 39.0382 29.6031 39.3465 30.423 39.9211C31.2429 40.4958 31.8659 41.3089 32.2075 42.25H39.2925C39.6825 41.1753 40.4378 40.2718 41.4263 39.6975C42.4149 39.1232 43.5739 38.9146 44.7007 39.1082C45.8275 39.3018 46.8503 39.8853 47.5905 40.7566C48.3307 41.628 48.7411 42.7318 48.75 43.875ZM9.75 19.5C9.75 16.2861 10.703 13.1443 12.4886 10.472C14.2742 7.79969 16.8121 5.71689 19.7814 4.48696C22.7507 3.25704 26.018 2.93524 29.1702 3.56225C32.3224 4.18926 35.2179 5.73692 37.4905 8.00952C39.7631 10.2821 41.3108 13.1776 41.9378 16.3298C42.5648 19.482 42.243 22.7493 41.013 25.7186C39.7831 28.6879 37.7003 31.2258 35.028 33.0114C32.3557 34.797 29.2139 35.75 26 35.75C21.6902 35.75 17.557 34.038 14.5095 30.9905C11.462 27.943 9.75 23.8098 9.75 19.5ZM24.375 18.8338C24.3786 19.6943 24.7234 20.5183 25.3338 21.125L29.7213 25.5288C29.8731 25.6794 30.0532 25.7985 30.2512 25.8794C30.4491 25.9603 30.6611 26.0012 30.875 26C31.0889 26.0012 31.3009 25.9603 31.4988 25.8794C31.6968 25.7985 31.8769 25.6794 32.0287 25.5288C32.1811 25.3777 32.302 25.198 32.3844 24.9999C32.4669 24.8019 32.5094 24.5895 32.5094 24.375C32.5094 24.1605 32.4669 23.9481 32.3844 23.7501C32.302 23.552 32.1811 23.3723 32.0287 23.2213L27.625 18.8338V11.375C27.625 10.944 27.4538 10.5307 27.149 10.226C26.8443 9.92121 26.431 9.75001 26 9.75001C25.569 9.75001 25.1557 9.92121 24.851 10.226C24.5462 10.5307 24.375 10.944 24.375 11.375V18.8338Z" fill="black"></path></svg> 