<?xml version="1.0" encoding="UTF-8"?> <svg xmlns="http://www.w3.org/2000/svg" width="53" height="52" viewBox="0 0 53 52" fill="none"><path fill-rule="evenodd" clip-rule="evenodd" d="M26.7979 4.875C15.1308 4.875 5.67285 14.333 5.67285 26C5.67285 37.667 15.1308 47.125 26.7979 47.125C38.4649 47.125 47.9229 37.667 47.9229 26C47.9229 14.333 38.4649 4.875 26.7979 4.875ZM28.4229 13C28.4229 12.1025 27.6953 11.375 26.7979 11.375C25.9004 11.375 25.1729 12.1025 25.1729 13V26C25.1729 26.8975 25.9004 27.625 26.7979 27.625H36.5479C37.4453 27.625 38.1729 26.8975 38.1729 26C38.1729 25.1025 37.4453 24.375 36.5479 24.375H28.4229V13Z" fill="#0F172A"></path></svg> 