<svg xmlns="http://www.w3.org/2000/svg" xmlns:xlink="http://www.w3.org/1999/xlink" style="enable-background:new 0 0 20 20" width="20" height="20" version="1.1" xml:space="preserve"><rect id="backgroundrect" width="100%" height="100%" x="0" y="0" fill="none" stroke="none"/><g class="currentLayer"><title>Layer 1</title><g id="XMLID_11_" fill="#eee" fill-opacity="1" class="selected"><path id="XMLID_18_" fill="#eee" fill-opacity="1" d="M10,0C4.5,0,0,4.5,0,10s4.5,10,10,10s10-4.5,10-10S15.5,0,10,0z M10,18.3c-4.6,0-8.3-3.7-8.3-8.3 c0-4.6,3.7-8.3,8.3-8.3c4.6,0,8.3,3.7,8.3,8.3C18.3,14.6,14.6,18.3,10,18.3z"/><path id="XMLID_19_" fill="#eee" fill-opacity="1" d="M10.8,8.9L10.8,8.9L10.8,8.9c-0.1-0.1-0.2-0.1-0.3-0.2L6.1,6.1l2.7,4.5c0,0.1,0.1,0.1,0.1,0.2l0,0l0,0 c0.2,0.3,0.6,0.6,1.1,0.6c0.8,0,1.4-0.6,1.4-1.4C11.4,9.6,11.2,9.2,10.8,8.9z M10,10.7c-0.4,0-0.7-0.3-0.7-0.7 c0-0.4,0.3-0.7,0.7-0.7s0.7,0.3,0.7,0.7C10.7,10.4,10.4,10.7,10,10.7z"/><g id="XMLID_16_" fill="#eee" fill-opacity="1"><rect id="XMLID_8_" width=".6" height="1.3" x="9.7" y="2.9" fill="#eee" fill-opacity="1"/><rect id="XMLID_7_" width=".6" height="1.3" x="5.1" y="4.8" fill="#eee" fill-opacity="1" transform="matrix(0.7071 -0.7071 0.7071 0.7071 -2.2594 5.4186)"/><rect id="XMLID_6_" width="1.3" height=".6" x="13.9" y="5.1" fill="#eee" fill-opacity="1" transform="matrix(0.7071 -0.7071 0.7071 0.7071 0.4169 11.8797)"/><rect id="XMLID_5_" width="1.3" height=".6" x="2.9" y="9.7" fill="#eee" fill-opacity="1"/><rect id="XMLID_4_" width="1.3" height=".6" x="15.8" y="9.7" fill="#eee" fill-opacity="1"/><rect id="XMLID_3_" width="1.3" height=".6" x="4.8" y="14.3" fill="#eee" fill-opacity="1" transform="matrix(0.7071 -0.7071 0.7071 0.7071 -8.7214 8.0952)"/><rect id="XMLID_2_" width=".6" height="1.3" x="14.2" y="13.9" fill="#eee" fill-opacity="1" transform="matrix(0.7071 -0.7071 0.7071 0.7071 -6.0451 14.5563)"/><rect id="XMLID_1_" width=".6" height="1.3" x="9.7" y="15.8" fill="#eee" fill-opacity="1"/></g><path id="XMLID_47_" fill="#eee" fill-opacity="1" d="M11.3,9.5c0-0.1-0.1-0.1-0.1-0.2l0,0l0,0c-0.2-0.3-0.6-0.6-1.1-0.6c-0.8,0-1.4,0.6-1.4,1.4 c0,0.4,0.2,0.8,0.5,1.1l0,0l0,0c0.1,0.1,0.2,0.1,0.3,0.2l4.4,2.6L11.3,9.5z M10,10.7c-0.4,0-0.7-0.3-0.7-0.7c0-0.4,0.3-0.7,0.7-0.7 s0.7,0.3,0.7,0.7C10.7,10.4,10.4,10.7,10,10.7z"/></g></g></svg>