<?xml version="1.0" encoding="UTF-8"?> <svg xmlns="http://www.w3.org/2000/svg" width="53" height="53" viewBox="0 0 53 53" fill="none"><path d="M31.3274 13.7438C33.468 15.086 34.9691 17.3572 35.2424 19.9936C36.1154 20.4015 37.0843 20.6361 38.1116 20.6361C41.862 20.6361 44.9017 17.5964 44.9017 13.8467C44.9017 10.0963 41.862 7.05661 38.1116 7.05661C34.3971 7.05777 31.384 10.0431 31.3274 13.7438ZM26.879 27.6463C30.6294 27.6463 33.6691 24.606 33.6691 20.8563C33.6691 17.1065 30.6288 14.0668 26.879 14.0668C23.1293 14.0668 20.0879 17.1071 20.0879 20.8568C20.0879 24.6066 23.1293 27.6463 26.879 27.6463ZM29.7593 28.1091H23.9977C19.2038 28.1091 15.3038 32.0097 15.3038 36.8035V43.8495L15.3218 43.9599L15.8071 44.1118C20.3819 45.5412 24.3565 46.0179 27.6279 46.0179C34.0175 46.0179 37.7211 44.1962 37.9493 44.08L38.4028 43.8507H38.4514V36.8035C38.4531 32.0097 34.5531 28.1091 29.7593 28.1091ZM40.993 21.0995H35.2759C35.2141 23.3869 34.2376 25.4467 32.6932 26.9281C36.9543 28.1952 40.072 32.1466 40.072 36.8139V38.9852C45.7169 38.7783 48.9698 37.1785 49.1842 37.071L49.6377 36.8411H49.6862V29.7927C49.6862 24.9995 45.7863 21.0995 40.993 21.0995ZM14.9647 20.6373C16.293 20.6373 17.5289 20.2496 18.5758 19.5892C18.9086 17.4185 20.0723 15.5216 21.7345 14.2297C21.7415 14.1026 21.7536 13.9767 21.7536 13.8484C21.7536 10.098 18.7133 7.05834 14.9647 7.05834C11.2138 7.05834 8.17465 10.098 8.17465 13.8484C8.17465 17.597 11.2138 20.6373 14.9647 20.6373ZM21.0626 26.9281C19.5257 25.4542 18.5527 23.4054 18.4816 21.1319C18.2696 21.1163 18.0598 21.0995 17.8438 21.0995H12.0827C7.28892 21.0995 3.38892 24.9995 3.38892 29.7927V36.8399L3.40683 36.9485L3.89216 37.1016C7.56221 38.2474 10.8376 38.7755 13.6826 38.9419V36.8139C13.6838 32.1466 16.8003 28.1963 21.0626 26.9281Z" fill="black"></path></svg> 