<?xml version="1.0" encoding="UTF-8"?> <svg xmlns="http://www.w3.org/2000/svg" width="52" height="52" viewBox="0 0 52 52" fill="none"><path d="M9.76002 6.54401C6.00535 6.54401 2.93335 9.61601 2.93335 13.3707C2.93335 17.1253 6.00535 20.1973 9.76002 20.1973C13.5147 20.1973 16.5867 17.1253 16.5867 13.3707C16.5867 9.61601 13.5147 6.54401 9.76002 6.54401Z" fill="black"></path><path d="M2.93335 29.4816V43.2032C2.93335 44.432 3.95735 45.456 5.18615 45.456H5.25442C6.48322 45.456 7.50722 44.432 7.50722 43.2032V40.8821C7.50722 39.6533 8.53122 38.6293 9.76002 38.6293C10.9888 38.6293 12.0128 39.6533 12.0128 40.8821V43.2032C12.0128 44.432 13.0368 45.456 14.2656 45.456H14.3339C15.5627 45.456 16.5867 44.432 16.5867 43.2032V29.4816C16.5867 25.7269 13.5147 22.6549 9.76002 22.6549H9.69175C6.00535 22.7232 2.93335 25.7269 2.93335 29.4816Z" fill="black"></path><path d="M24.2858 15.9989L24.6271 16.3403C25.378 17.0912 26.4703 17.1595 27.2895 16.5451C27.3578 16.4768 27.4943 16.4085 27.5626 16.3403C28.5183 15.6576 29.9519 15.8624 30.498 16.8864C31.6586 18.8661 33.8431 20.2315 36.369 20.2315C38.8948 20.2315 41.0794 18.8661 42.2399 16.8864C42.8543 15.8624 44.2196 15.6576 45.1754 16.3403C45.2436 16.4085 45.3802 16.4768 45.4484 16.5451C46.2676 17.1595 47.4282 17.0912 48.1108 16.3403L48.4522 15.9989C49.3396 15.1115 49.2031 13.6779 48.2474 12.9269C46.5407 11.6299 44.6975 10.6059 42.7178 9.92319C42.3082 9.78666 41.9668 9.58186 41.6938 9.24052C40.465 7.60212 38.4852 6.57812 36.3007 6.57812C34.1162 6.57812 32.1364 7.67039 30.9076 9.24052C30.6346 9.58186 30.2932 9.78666 29.8836 9.92319C27.9039 10.6059 26.0607 11.6299 24.354 12.9269C23.4666 13.6779 23.3983 15.0432 24.2858 15.9989Z" fill="black"></path><path d="M26.3338 40.848H30.9759C31.4538 40.848 31.8634 41.2576 31.8634 41.7355V42.896C31.8634 44.2613 32.9556 45.4219 34.3892 45.4219H38.4852C39.8506 45.4219 41.0111 44.3296 41.0111 42.896V41.7355C41.0111 41.2576 41.4207 40.848 41.8986 40.848H46.4042C47.0868 40.848 47.4964 40.1653 47.2916 39.6192L42.513 26.9216C41.5572 24.3275 39.0996 22.6891 36.369 22.6891C33.6383 22.6891 31.1807 24.3957 30.225 26.9216L25.4463 39.6192C25.2415 40.1653 25.7194 40.848 26.3338 40.848Z" fill="black"></path></svg> 