<?xml version="1.0" encoding="UTF-8"?> <svg xmlns="http://www.w3.org/2000/svg" width="52" height="52" viewBox="0 0 52 52" fill="none"><path d="M31.6148 12.6796C29.0959 12.6796 25.889 12.2303 22.5748 11.4125C19.2299 10.5875 16.1572 9.48185 13.9228 8.29807C11.3406 6.93129 10.1832 5.62248 10.4831 4.40804C11.1729 1.60692 19.4736 3.66956 23.9692 4.6871C24.3659 4.77669 24.615 5.17048 24.5249 5.56715C24.4349 5.96286 24.0411 6.21246 23.6454 6.12239C16.2351 4.44613 12.0573 4.16898 11.9126 4.76015C11.8753 4.91154 12.224 5.73362 14.6107 6.9974C16.7426 8.12609 19.6965 9.18674 22.9274 9.98391C26.1295 10.7739 29.2108 11.2079 31.6138 11.2079C31.6359 11.2079 31.657 11.2079 31.678 11.2075C34.379 11.1988 35.0708 10.6335 35.1072 10.4831C35.1359 10.3676 34.1632 9.2105 32.9492 8.3865C32.6129 8.15847 32.5248 7.70048 32.7538 7.36417C32.9808 7.02882 33.4379 6.93924 33.7751 7.16871C35.3244 8.22027 36.7724 9.88091 36.5367 10.8352C36.2368 12.0492 34.6042 12.6701 31.6828 12.6792C31.6598 12.6796 31.6378 12.6796 31.6148 12.6796Z" fill="black"></path><path d="M38.5076 48.9973C44.1137 48.9973 48.6754 44.4361 48.6754 38.83C48.6754 33.2177 44.1137 28.6517 38.5076 28.6517C32.8949 28.6517 28.3293 33.2177 28.3293 38.83C28.3293 44.4361 32.8949 48.9973 38.5076 48.9973ZM33.7035 36.4069H36.073V34.0254C36.073 32.6893 37.1605 31.6023 38.4961 31.6023C39.8318 31.6023 40.9193 32.6893 40.9193 34.0254V36.4069H43.3012C44.6368 36.4069 45.7243 37.4939 45.7243 38.83C45.7243 40.1661 44.6368 41.2532 43.3012 41.2532H40.9193V43.6236C40.9193 44.9592 39.8318 46.0462 38.4961 46.0462C37.1605 46.0462 36.073 44.9592 36.073 43.6236V41.2532H33.7035C32.3679 41.2532 31.2804 40.1661 31.2804 38.83C31.2804 37.4939 32.3679 36.4069 33.7035 36.4069Z" fill="black"></path><path d="M44.8053 18.8604L40.8317 4.76155C40.6158 4.0257 39.9094 3.52537 39.1343 3.58424L24.5251 4.64382C24.5057 4.64382 24.4959 4.64382 24.4763 4.65364C24.2113 4.67328 23.9366 4.77137 23.7109 4.92839C23.5636 5.02648 23.4166 5.17367 23.3088 5.33062L23.1615 5.53668L20.8068 8.90196C21.5329 9.11778 22.2785 9.32384 23.0438 9.51026C25.9087 10.2166 28.6949 10.6386 30.9516 10.7072C31.0596 10.1872 31.2754 9.68685 31.5895 9.23551C31.9622 8.70572 32.4429 8.29366 32.9924 8.0091C33.6202 7.68537 34.3364 7.52835 35.0431 7.56763C35.7593 7.60686 36.4657 7.8325 37.0935 8.27402C38.8694 9.5299 39.3109 11.9925 38.0648 13.7782C37.2995 14.877 36.0635 15.4657 34.8174 15.4657C34.0325 15.4657 33.2377 15.2303 32.551 14.7495C31.9622 14.3374 31.5109 13.7978 31.2362 13.16C28.7342 13.1208 25.6437 12.6793 22.4551 11.8846C21.3856 11.6197 20.3359 11.3253 19.3351 11.0016L3.59774 33.4597C3.36228 33.7933 3.27389 34.1955 3.35246 34.588C3.4212 34.9902 3.63702 35.3337 3.97046 35.5593L22.7593 48.7359C23.446 49.2069 24.3879 49.04 24.8588 48.3533L28.018 43.8597C27.3804 42.545 26.988 41.0929 26.8996 39.5623L24.2703 43.3004C23.9268 43.7812 23.3773 44.0461 22.8278 44.0461C22.4845 44.0461 22.1312 43.9382 21.827 43.7223L8.98415 34.7155C8.60137 34.4604 8.34651 34.0484 8.26794 33.5872C8.18937 33.1261 8.28758 32.665 8.56233 32.2824L19.1586 17.1533C19.4331 16.7707 19.8355 16.5057 20.2966 16.4272C20.7577 16.3487 21.2188 16.4469 21.6014 16.7216L34.4445 25.7283C34.8174 25.9834 35.0824 26.3857 35.1705 26.8468C35.2196 27.1314 35.1901 27.4159 35.102 27.6906C36.1811 27.3571 37.3191 27.1805 38.5063 27.1805C38.8989 27.1805 39.2814 27.2 39.6642 27.2393L44.5698 20.234C44.8544 19.8318 44.9327 19.3314 44.8053 18.8604Z" fill="black"></path><path fill-rule="evenodd" clip-rule="evenodd" d="M28.3773 23.9901C28.8462 23.3072 28.6728 22.3734 27.9898 21.9045C27.3069 21.4355 26.3731 21.609 25.9042 22.292L25.4548 22.9465C24.5895 22.5689 23.6466 22.3472 22.696 22.3581C21.2159 22.375 19.8746 22.9681 19.0769 24.1299C18.2792 25.2916 18.2075 26.7565 18.7233 28.1438C19.0546 29.035 19.6002 29.8353 20.2634 30.5072L18.3412 33.3066C18.0636 32.972 17.8483 32.6209 17.7087 32.2743L17.0705 30.6889C16.7611 29.9204 15.8873 29.5483 15.1188 29.8577C14.3503 30.1671 13.9782 31.0408 14.2875 31.8093L14.9258 33.3947C15.2958 34.3136 15.8897 35.1424 16.602 35.8396L16.1599 36.4835C15.6909 37.1664 15.8644 38.1002 16.5474 38.5691C17.2303 39.038 18.1641 38.8645 18.633 38.1816L19.075 37.5378C19.9817 37.9521 20.9686 38.2088 21.9592 38.224C23.4672 38.2472 24.864 37.6915 25.684 36.4973C26.5039 35.3032 26.5208 33.7999 25.9575 32.4009C25.5875 31.4819 24.9935 30.653 24.2811 29.9557L26.1764 27.1955C26.3859 27.4743 26.5484 27.7646 26.6557 28.0532L26.9421 28.8234C27.2308 29.5999 28.0943 29.9953 28.8708 29.7066C29.6473 29.4179 30.0427 28.5544 29.754 27.7779L29.4676 27.0077C29.1363 26.1167 28.5909 25.3165 27.9279 24.6447L28.3773 23.9901ZM22.7302 25.3579C23.0383 25.3544 23.3678 25.4017 23.7033 25.4973L22.0148 27.9565C21.8051 27.6776 21.6426 27.3871 21.5352 27.0983C21.2876 26.4324 21.4125 26.0282 21.55 25.828C21.6875 25.6278 22.0198 25.366 22.7302 25.3579ZM20.8143 35.0048L22.5419 32.4887C22.8196 32.8234 23.035 33.1745 23.1746 33.5213C23.4622 34.2355 23.3261 34.6314 23.2108 34.7992C23.0956 34.967 22.7751 35.2362 22.0053 35.2244C21.6315 35.2186 21.2264 35.1438 20.8143 35.0048Z" fill="#0F172A"></path></svg> 