<?xml version="1.0" encoding="UTF-8"?> <svg xmlns="http://www.w3.org/2000/svg" width="52" height="52" viewBox="0 0 52 52" fill="none"><path d="M28.1606 36.0862H23.8392C23.7496 36.2386 23.5434 36.5972 23.3372 36.9648C20.1365 42.4696 12.8924 44.1103 7.69235 40.5062C2.46545 36.8752 1.542 29.6221 5.4689 24.5924C7.04683 22.5662 8.21235 20.2172 9.49442 17.9759C10.4627 16.2814 11.7537 14.9993 13.493 14.1117C13.8696 13.8876 14.1565 13.5469 14.2999 13.1345C15.1606 10.4807 17.5006 9.08206 20.0468 9.75448C22.5124 10.409 23.7765 12.7579 23.3282 15.4565C23.2206 16.0841 23.8213 16.8193 24.0813 17.5096C24.3772 18.3076 24.9151 18.4062 25.731 18.4959C27.793 18.711 28.0261 17.0793 28.5999 16.0214C28.7972 15.6628 28.6358 15.4386 28.591 15.1607C28.0082 11.7628 29.2096 10.5255 31.6482 9.79034C34.1586 9.03724 36.633 10.4269 37.5117 12.991C37.6551 13.4214 38.0675 13.8786 38.4799 14.0938C40.0848 14.9455 41.3489 16.0931 42.2903 17.6531C43.9041 20.3338 45.5537 22.9965 47.2303 25.6414C50.4758 30.7428 49.0055 37.5296 43.9041 40.7303C38.8117 43.94 32.0786 42.4069 28.8689 37.3055C28.8599 37.2876 28.851 37.2786 28.842 37.2607C28.573 36.8393 28.331 36.391 28.1606 36.0862ZM20.8986 31.6124C20.9434 27.7303 17.8323 24.5386 13.9503 24.4848C10.131 24.431 6.84959 27.6138 6.78683 31.451C6.72407 35.3421 9.93373 38.5965 13.8427 38.6055C17.7517 38.6234 20.8717 35.5393 20.8986 31.6124ZM45.1413 31.5496C45.1413 27.6855 41.9675 24.5028 38.1213 24.4848C34.2841 24.4669 31.0744 27.6407 31.0117 31.5048C30.9579 35.3869 34.1944 38.6145 38.1303 38.6055C42.0124 38.5965 45.1503 35.4407 45.1413 31.5496ZM25.8027 30.0434C25.0137 30.1062 24.5296 30.6441 24.4758 31.5317C24.431 32.3207 25.0317 33.0021 25.8296 33.0559H26.0268C26.9324 33.0021 27.4524 32.5 27.4792 31.5676C27.4972 30.6531 26.8427 30.0255 25.8027 30.0434Z" fill="black"></path></svg> 