<?xml version="1.0" encoding="utf-8"?>
<svg width="103px" height="103px" viewbox="0 0 103 103" version="1.1" xmlns:xlink="http://www.w3.org/1999/xlink" xmlns="http://www.w3.org/2000/svg">
  <g id="Support_Cog">
    <path d="M18.1157 79.6538C16.6737 79.6538 15.2875 80.0138 14.0577 80.6896C7.57931 72.3849 4.02344 62.0686 4.02344 51.5C4.02344 25.3209 25.3209 4.02344 51.5 4.02344C54.6826 4.02344 57.8636 4.34013 60.9551 4.96486C62.0427 5.18489 63.1051 4.48079 63.3251 3.39163C63.5452 2.30247 62.8411 1.24161 61.7519 1.02079C58.3988 0.343407 54.9498 0 51.5 0C37.7441 0 24.8109 5.35699 15.084 15.084C5.35699 24.8109 0 37.7441 0 51.5C0 63.0713 3.92914 74.3637 11.0825 83.4164C10.1615 84.7924 9.66647 86.4096 9.66647 88.1031C9.66647 90.36 10.5458 92.4817 12.1418 94.0769C13.7371 95.6729 15.8588 96.5523 18.1157 96.5523C20.3726 96.5523 22.4943 95.6729 24.0903 94.0769C25.6863 92.4817 26.5649 90.3592 26.5649 88.1023C26.5649 85.8462 25.6863 83.7236 24.0903 82.1284C22.4943 80.5324 20.3726 79.6538 18.1157 79.6538L18.1157 79.6538ZM21.2449 91.2322C20.4095 92.0683 19.2976 92.5288 18.1157 92.5288C16.9338 92.5288 15.8226 92.0683 14.9865 91.2322C14.1504 90.3961 13.6899 89.2849 13.6899 88.103C13.6899 86.9204 14.1504 85.8092 14.9865 84.9731C15.8219 84.137 16.9338 83.6772 18.1157 83.6772C19.2976 83.6772 20.4087 84.1377 21.2449 84.9731C22.081 85.8092 22.5415 86.9204 22.5415 88.103C22.5415 89.2849 22.081 90.3961 21.2449 91.2322L21.2449 91.2322Z" id="Shape" fill="#374750" fill-rule="evenodd" stroke="none" />
    <path d="M52.1877 13.1335C54.3747 9.85271 54.0234 5.3672 51.1308 2.47457C49.5347 0.879341 47.413 0 45.1561 0C42.8992 0 40.7775 0.879341 39.1815 2.47457C37.5854 4.07059 36.7069 6.19232 36.7069 8.44922C36.7069 10.7061 37.5854 12.8279 39.1815 14.4239C40.7775 16.0199 42.8992 16.8984 45.1561 16.8984C46.5981 16.8984 47.9843 16.5385 49.2141 15.8627C55.6925 24.1681 59.2484 34.4837 59.2484 45.0523C59.2484 71.2313 37.9509 92.5288 11.7718 92.5288C8.62062 92.5288 5.46946 92.2184 2.40709 91.6055C1.31793 91.3878 0.257847 92.0943 0.0393865 93.1834C-0.178288 94.2734 0.528171 95.3327 1.61733 95.5511C4.93902 96.2152 8.3558 96.5523 11.7718 96.5523C25.5277 96.5523 38.4609 91.1953 48.1878 81.4683C57.9148 71.7413 63.2718 58.8082 63.2718 45.0523C63.2718 33.4802 59.3419 22.1871 52.1877 13.1335L52.1877 13.1335ZM42.0269 11.5792C41.1908 10.743 40.7303 9.63189 40.7303 8.44922C40.7303 7.26733 41.1908 6.15617 42.0269 5.32005C42.8623 4.48393 43.9742 4.02344 45.1561 4.02344C46.338 4.02344 47.4499 4.48393 48.286 5.32005C50.0109 7.04573 50.0109 9.85349 48.286 11.5792C47.4499 12.4145 46.338 12.875 45.1561 12.875C43.9734 12.875 42.8623 12.4145 42.0269 11.5792L42.0269 11.5792Z" transform="translate(39.72821 6.447693)" id="Shape" fill="#374750" fill-rule="evenodd" stroke="none" />
    <path d="M28.3149 71.2148C28.3149 72.326 29.2163 73.2266 30.3267 73.2266L42.9054 73.2266C44.0166 73.2266 44.9171 72.326 44.9171 71.2148L44.9171 67.3148C47.5622 66.6028 50.091 65.5545 52.4674 64.1856L55.2209 66.9392C55.5981 67.3164 56.1097 67.5285 56.644 67.5285C57.1768 67.5285 57.6892 67.3164 58.0664 66.9384L66.9572 58.0412C67.7423 57.2554 67.7423 55.9816 66.9572 55.1965L64.2068 52.4461C65.5757 50.0698 66.624 47.541 67.336 44.8959L71.2211 44.8959C72.3323 44.8959 73.2328 43.9953 73.2328 42.8842L73.2328 30.3054C73.2328 29.1943 72.3323 28.2937 71.2211 28.2937L67.3352 28.2937C66.6233 25.6494 65.5757 23.1206 64.2068 20.7443L66.9423 18.0088C67.3195 17.6316 67.5317 17.1193 67.5317 16.5857C67.5309 16.0521 67.3187 15.5397 66.9415 15.1625L58.0436 6.27169C57.2585 5.48665 55.9847 5.48665 55.1989 6.27248L52.4674 9.0048C50.091 7.63589 47.5622 6.58759 44.9171 5.87563L44.9171 2.01172C44.9171 0.900558 44.0166 0 42.9054 0L30.3267 0C29.2163 0 28.3149 0.900558 28.3149 2.01172L28.3149 5.87642C25.6706 6.58759 23.1418 7.63589 20.7655 9.0048L18.0332 6.27248C17.2481 5.48743 15.9743 5.48665 15.1885 6.27169L6.29134 15.1633C5.91335 15.5405 5.70118 16.0521 5.70118 16.5857C5.70118 17.1193 5.91335 17.6316 6.29055 18.0088L9.02602 20.7443C7.65711 23.1206 6.60881 25.6486 5.89685 28.2937L2.01879 28.2937C0.907632 28.2937 0.00707398 29.1943 0.00707398 30.3047L1.53482e-06 42.8834C-0.000784293 43.417 0.211389 43.9293 0.588586 44.3065C0.965784 44.6837 1.47736 44.8959 2.01172 44.8959L5.89685 44.8959C6.60881 47.541 7.65711 50.0698 9.02602 52.4461L6.27562 55.1965C5.49058 55.9816 5.48979 57.2554 6.27562 58.0412L15.1665 66.9384C15.5437 67.3156 16.0552 67.5285 16.5888 67.5285L16.5896 67.5285C17.1232 67.5285 17.6348 67.3164 18.012 66.9392L20.7647 64.1856C23.1418 65.5545 25.6706 66.6028 28.3149 67.3148L28.3149 71.2148ZM21.5537 59.9547C20.7576 59.44 19.7101 59.5516 19.039 60.2219L16.5896 62.6713L10.5427 56.6197L12.9897 54.1718C13.66 53.5015 13.7716 52.454 13.2569 51.658C11.433 48.8353 10.1505 45.7415 9.44643 42.4614C9.24683 41.5349 8.428 40.8725 7.47951 40.8725L4.02422 40.8725L4.02894 32.3172L7.47951 32.3172C8.428 32.3172 9.24683 31.6555 9.44643 30.7282C10.1505 27.449 11.433 24.3552 13.2569 21.5325C13.7716 20.7364 13.66 19.6889 12.9897 19.0186L10.5584 16.5865L16.61 10.5395L19.039 12.9693C19.7101 13.6396 20.7568 13.7504 21.5537 13.2365C24.3756 11.4126 27.4694 10.1301 30.7494 9.426C31.6759 9.2264 32.3384 8.40678 32.3384 7.45908L32.3384 4.02344L40.8937 4.02344L40.8937 7.45829C40.8937 8.40678 41.5553 9.2264 42.4826 9.42522C45.7619 10.1301 48.8565 11.4118 51.6784 13.2357C52.4744 13.7504 53.5219 13.6396 54.1922 12.9685L56.622 10.5395L62.6737 16.5865L60.2423 19.0178C59.5712 19.6889 59.4604 20.7364 59.9752 21.5325C61.7991 24.3552 63.0807 27.449 63.7856 30.7282C63.9844 31.6555 64.8041 32.3172 65.7526 32.3172L69.2094 32.3172L69.2094 40.8725L65.7526 40.8725C64.8041 40.8725 63.9852 41.5349 63.7856 42.4614C63.0815 45.7407 61.7991 48.8353 59.9752 51.6572C59.4604 52.454 59.572 53.5015 60.2423 54.1718L62.6894 56.6189L56.6425 62.6705L54.193 60.2219C53.5219 59.5508 52.4744 59.44 51.6784 59.9547C48.8557 61.7786 45.7619 63.0603 42.4826 63.7652C41.5553 63.9648 40.8937 64.7836 40.8937 65.7321L40.8937 69.2031L32.3384 69.2031L32.3384 65.7321C32.3384 64.7844 31.6759 63.9648 30.7494 63.7652C27.4702 63.0611 24.3764 61.7786 21.5537 59.9547L21.5537 59.9547Z" transform="translate(14.883575 14.886719)" id="Shape" fill="#03759C" fill-rule="evenodd" stroke="none" />
    <path d="M33.2452 16.6226C33.2452 7.45672 25.7885 0 16.6226 0C7.45672 0 0 7.45672 0 16.6226C0 25.7885 7.45672 33.2452 16.6226 33.2452C25.7885 33.2452 33.2452 25.7885 33.2452 16.6226L33.2452 16.6226ZM4.02344 16.6226C4.02344 9.67511 9.67511 4.02344 16.6226 4.02344C23.5701 4.02344 29.2218 9.6759 29.2218 16.6226C29.2218 23.5693 23.5701 29.2218 16.6226 29.2218C9.67511 29.2218 4.02344 23.5701 4.02344 16.6226L4.02344 16.6226Z" transform="translate(34.87738 34.87738)" id="Shape" fill="#03759C" fill-rule="evenodd" stroke="none" />
    <path d="M2.01172 4.02579C2.54137 4.02579 3.06001 3.81048 3.43407 3.43642C3.80812 3.06001 4.02344 2.54137 4.02344 2.01172C4.02344 1.48521 3.80891 0.965782 3.43407 0.589371C3.06001 0.215317 2.54137 0 2.01172 0C1.4805 0 0.964211 0.215317 0.590157 0.589371C0.215317 0.965782 0 1.48286 0 2.01172C0 2.54294 0.215317 3.06001 0.590157 3.43642C0.964211 3.81048 1.4805 4.02579 2.01172 4.02579L2.01172 4.02579Z" transform="translate(68.01181 3.5825806)" id="Shape" fill="#374750" fill-rule="evenodd" stroke="none" />
    <path d="M2.01172 0C1.48286 0 0.963425 0.215317 0.589371 0.589371C0.215317 0.963425 0 1.48286 0 2.01172C0 2.54294 0.215317 3.06001 0.589371 3.43407C0.963425 3.80812 1.48286 4.02344 2.01172 4.02344C2.54058 4.02344 3.06001 3.80812 3.43407 3.43407C3.80812 3.06001 4.02344 2.54058 4.02344 2.01172C4.02344 1.48286 3.80812 0.963425 3.43407 0.589371C3.06001 0.215317 2.54058 0 2.01172 0L2.01172 0Z" transform="translate(31.052765 95.427734)" id="Shape" fill="#374750" fill-rule="evenodd" stroke="none" />
  </g>
</svg>