<?xml version="1.0" encoding="UTF-8"?> <svg xmlns="http://www.w3.org/2000/svg" width="30" height="30" viewBox="0 0 30 30" fill="none"><path d="M27.1875 8.4375V21.5625C27.1875 23.1158 25.9283 24.375 24.375 24.375H5.625C4.0717 24.375 2.8125 23.1158 2.8125 21.5625V8.4375M27.1875 8.4375C27.1875 6.8842 25.9283 5.625 24.375 5.625H5.625C4.0717 5.625 2.8125 6.8842 2.8125 8.4375M27.1875 8.4375V8.74089C27.1875 9.71756 26.6808 10.6243 25.849 11.1362L16.474 16.9054C15.5701 17.4617 14.4299 17.4617 13.526 16.9054L4.15098 11.1362C3.31919 10.6243 2.8125 9.71756 2.8125 8.74089V8.4375" stroke="#090909" stroke-width="2" stroke-linecap="round" stroke-linejoin="round"></path></svg> 