<?xml version="1.0" encoding="UTF-8"?> <svg xmlns="http://www.w3.org/2000/svg" width="30" height="30" viewBox="0 0 30 30" fill="none"><path d="M2.8125 8.4375C2.8125 18.7928 11.2072 27.1875 21.5625 27.1875H24.375C25.9283 27.1875 27.1875 25.9283 27.1875 24.375V22.6605C27.1875 22.0152 26.7483 21.4527 26.1223 21.2962L20.5933 19.914C20.0444 19.7767 19.4667 19.9818 19.1273 20.4345L17.9145 22.0515C17.5625 22.5208 16.9538 22.7283 16.4029 22.5265C12.2692 21.0123 8.98769 17.7308 7.47345 13.5971C7.27167 13.0462 7.4792 12.4375 7.9485 12.0855L9.56553 10.8727C10.0182 10.5333 10.2233 9.95557 10.086 9.40666L8.7038 3.87768C8.54729 3.25167 7.98482 2.8125 7.33953 2.8125H5.625C4.0717 2.8125 2.8125 4.0717 2.8125 5.625V8.4375Z" stroke="#090909" stroke-width="2" stroke-linecap="round" stroke-linejoin="round"></path></svg> 