<svg xmlns="http://www.w3.org/2000/svg" xmlns:xlink="http://www.w3.org/1999/xlink" width="512" height="512" viewBox="0 0 170.667 170.667"><defs><g id="c"><clipPath id="a"><path d="M-109 104a104 104 0 0 0 0-208h218a104 104 0 0 0 0 208z"/></clipPath><path id="b" d="M-55 74a55 55 0 0 1 110 0V-74a55 55 0 0 1-110 0z" clip-path="url(#a)"/><use width="300" height="200" transform="rotate(90)" xlink:href="#b"/></g></defs><path fill="#fff" d="M0 0h170.67v170.67H0z"/><g transform="matrix(.535 0 0 .535 5.108 47.576)"><path fill="#fff" d="M0-29.333h300v200H0z"/><path fill="red" d="M130-29.333v80H0v40h130v80h40v-80h130v-40H170v-80h-40z"/><use width="300" height="200" fill="red" transform="translate(64.45 10.117)" xlink:href="#c"/><use width="300" height="200" fill="red" transform="translate(235.55 131.22)" xlink:href="#c"/><use width="300" height="200" fill="red" transform="translate(235.55 10.117)" xlink:href="#c"/><use width="300" height="200" fill="red" transform="translate(64.45 131.22)" xlink:href="#c"/></g></svg>