<svg xmlns="http://www.w3.org/2000/svg" xmlns:xlink="http://www.w3.org/1999/xlink" width="512" height="512" version="1" viewBox="0 0 512 512"><path fill="#006233" d="M0 0h512v512H0z"/><circle cx="256" cy="192" r="165.333" fill="#ffc400"/><path fill="#006233" d="M174.32 11.963A160 160 0 0 0 96 149.333a160 160 0 0 0 160 160 160 160 0 0 0 160-160 160 160 0 0 0-78.328-137.37H174.32z"/><g id="b" transform="translate(256 149.333) scale(5.33333)"><path id="a" fill="#ffc400" d="M0-12L-3.708-.587l5.706 1.854"/><use width="100%" height="100%" transform="scale(-1 1)" xlink:href="#a"/></g><use width="100%" height="100%" transform="rotate(72 256 149.333)" xlink:href="#b"/><use width="100%" height="100%" transform="rotate(144 256 149.333)" xlink:href="#b"/><use width="100%" height="100%" transform="rotate(-144 256 149.333)" xlink:href="#b"/><use width="100%" height="100%" transform="rotate(-72 256 149.333)" xlink:href="#b"/></svg>