<svg xmlns="http://www.w3.org/2000/svg" width="512" height="512" version="1" viewBox="0 0 512 512"><defs><clipPath id="a"><path fill-opacity=".67" d="M0 0h512v512H0z"/></clipPath></defs><g fill-rule="evenodd" clip-path="url(#a)"><rect width="512" height="512" fill="#fff" rx="0" ry="0"/><rect width="512" height="169.92" y="342.08" fill="#fff" rx="0" ry="0"/><path fill="#fff" d="M0 0h512v169.92H0zM151.36 299.73l-30.743-22.258-30.592 22.476 11.378-36.525-30.536-22.554 37.779-.314 11.718-36.414 11.969 36.33 37.779.047-30.38 22.767 11.629 36.444zM436.84 299.73l-30.743-22.258-30.592 22.476 11.378-36.525-30.536-22.554 37.779-.314 11.718-36.414 11.969 36.33 37.779.047-30.38 22.767 11.629 36.444z"/><rect width="512" height="169.92" y="342.08" rx="0" ry="0"/><path fill="red" d="M0 0h512v169.92H0z"/><path fill="#090" d="M151.36 299.73l-30.743-22.258-30.592 22.476 11.378-36.525-30.536-22.554 37.779-.314 11.718-36.414 11.969 36.33 37.779.047-30.38 22.767 11.629 36.444zM436.84 299.73l-30.743-22.258-30.592 22.476 11.378-36.525-30.536-22.554 37.779-.314 11.718-36.414 11.969 36.33 37.779.047-30.38 22.767 11.629 36.444z"/></g></svg>