<svg width="20" height="20" viewBox="0 0 20 20" fill="none" xmlns="http://www.w3.org/2000/svg">
<path d="M10.3942 10.5192C10.3942 10.875 10.1058 11.1635 9.75 11.1635C9.3942 11.1635 9.10577 10.875 9.10577 10.5192C9.10577 10.1634 9.3942 9.875 9.75 9.875C10.1058 9.875 10.3942 10.1634 10.3942 10.5192Z" fill="currentColor"/>
<path d="M5.88462 13.0962C6.24041 13.0962 6.52885 12.8077 6.52885 12.4519C6.52885 12.0961 6.24041 11.8077 5.88462 11.8077C5.52882 11.8077 5.24038 12.0961 5.24038 12.4519C5.24038 12.8077 5.52882 13.0962 5.88462 13.0962Z" fill="currentColor"/>
<path d="M6.52885 14.3846C6.52885 14.7404 6.24041 15.0288 5.88462 15.0288C5.52882 15.0288 5.24038 14.7404 5.24038 14.3846C5.24038 14.0288 5.52882 13.7404 5.88462 13.7404C6.24041 13.7404 6.52885 14.0288 6.52885 14.3846Z" fill="currentColor"/>
<path d="M7.81731 13.0962C8.17311 13.0962 8.46154 12.8077 8.46154 12.4519C8.46154 12.0961 8.17311 11.8077 7.81731 11.8077C7.46151 11.8077 7.17308 12.0961 7.17308 12.4519C7.17308 12.8077 7.46151 13.0962 7.81731 13.0962Z" fill="currentColor"/>
<path d="M8.46154 14.3846C8.46154 14.7404 8.17311 15.0288 7.81731 15.0288C7.46151 15.0288 7.17308 14.7404 7.17308 14.3846C7.17308 14.0288 7.46151 13.7404 7.81731 13.7404C8.17311 13.7404 8.46154 14.0288 8.46154 14.3846Z" fill="currentColor"/>
<path d="M9.75 13.0962C10.1058 13.0962 10.3942 12.8077 10.3942 12.4519C10.3942 12.0961 10.1058 11.8077 9.75 11.8077C9.3942 11.8077 9.10577 12.0961 9.10577 12.4519C9.10577 12.8077 9.3942 13.0962 9.75 13.0962Z" fill="currentColor"/>
<path d="M10.3942 14.3846C10.3942 14.7404 10.1058 15.0288 9.75 15.0288C9.3942 15.0288 9.10577 14.7404 9.10577 14.3846C9.10577 14.0288 9.3942 13.7404 9.75 13.7404C10.1058 13.7404 10.3942 14.0288 10.3942 14.3846Z" fill="currentColor"/>
<path d="M11.6827 13.0962C12.0385 13.0962 12.3269 12.8077 12.3269 12.4519C12.3269 12.0961 12.0385 11.8077 11.6827 11.8077C11.3269 11.8077 11.0385 12.0961 11.0385 12.4519C11.0385 12.8077 11.3269 13.0962 11.6827 13.0962Z" fill="currentColor"/>
<path d="M12.3269 14.3846C12.3269 14.7404 12.0385 15.0288 11.6827 15.0288C11.3269 15.0288 11.0385 14.7404 11.0385 14.3846C11.0385 14.0288 11.3269 13.7404 11.6827 13.7404C12.0385 13.7404 12.3269 14.0288 12.3269 14.3846Z" fill="currentColor"/>
<path d="M13.6154 13.0962C13.9712 13.0962 14.2596 12.8077 14.2596 12.4519C14.2596 12.0961 13.9712 11.8077 13.6154 11.8077C13.2596 11.8077 12.9712 12.0961 12.9712 12.4519C12.9712 12.8077 13.2596 13.0962 13.6154 13.0962Z" fill="currentColor"/>
<path d="M12.3269 10.5192C12.3269 10.875 12.0385 11.1635 11.6827 11.1635C11.3269 11.1635 11.0385 10.875 11.0385 10.5192C11.0385 10.1634 11.3269 9.875 11.6827 9.875C12.0385 9.875 12.3269 10.1634 12.3269 10.5192Z" fill="currentColor"/>
<path d="M13.6154 11.1635C13.9712 11.1635 14.2596 10.875 14.2596 10.5192C14.2596 10.1634 13.9712 9.875 13.6154 9.875C13.2596 9.875 12.9712 10.1634 12.9712 10.5192C12.9712 10.875 13.2596 11.1635 13.6154 11.1635Z" fill="currentColor"/>
<path fill-rule="evenodd" clip-rule="evenodd" d="M5.24038 1.5C5.59618 1.5 5.88462 1.78843 5.88462 2.14423V3.43269H13.6154V2.14423C13.6154 1.78843 13.9038 1.5 14.2596 1.5C14.6154 1.5 14.9038 1.78843 14.9038 2.14423V3.43269H15.5481C16.9713 3.43269 18.125 4.58642 18.125 6.00962V15.6731C18.125 17.0963 16.9713 18.25 15.5481 18.25H3.95192C2.52873 18.25 1.375 17.0963 1.375 15.6731V6.00962C1.375 4.58642 2.52873 3.43269 3.95192 3.43269H4.59615V2.14423C4.59615 1.78843 4.88459 1.5 5.24038 1.5ZM16.8365 9.23077C16.8365 8.51917 16.2597 7.94231 15.5481 7.94231H3.95192C3.24033 7.94231 2.66346 8.51917 2.66346 9.23077V15.6731C2.66346 16.3847 3.24033 16.9615 3.95192 16.9615H15.5481C16.2597 16.9615 16.8365 16.3847 16.8365 15.6731V9.23077Z" fill="currentColor"/>
</svg>
