<svg width="21" height="20" viewBox="0 0 21 20" fill="none" xmlns="http://www.w3.org/2000/svg">
<path d="M8.36643 9.40841C8.21182 9.25149 8.00211 9.16333 7.78345 9.16333C7.56479 9.16333 7.35508 9.25149 7.20046 9.40841C7.04585 9.56533 6.95898 9.77816 6.95898 10.0001C6.95898 10.222 7.04585 10.4348 7.20046 10.5917L9.66378 13.0917C9.7405 13.169 9.83149 13.2301 9.93153 13.2716C10.0316 13.313 10.1387 13.334 10.2468 13.3334C10.3592 13.3298 10.4696 13.3028 10.5713 13.254C10.673 13.2053 10.7638 13.1359 10.838 13.0501L16.5857 6.38341C16.7184 6.21618 16.7824 6.00342 16.7643 5.78948C16.7462 5.57554 16.6475 5.37694 16.4887 5.23508C16.3298 5.09323 16.1232 5.01907 15.9118 5.02808C15.7004 5.03708 15.5006 5.12855 15.354 5.28341L10.2468 11.2834L8.36643 9.40841Z" fill="currentColor"/>
<path d="M17.6365 9.16699C17.4187 9.16699 17.2098 9.25479 17.0558 9.41107C16.9019 9.56735 16.8153 9.77931 16.8153 10.0003C16.8153 11.7684 16.1233 13.4641 14.8914 14.7144C13.6595 15.9646 11.9887 16.667 10.2465 16.667C8.94924 16.6664 7.68119 16.276 6.60226 15.5449C5.52333 14.8139 4.68183 13.775 4.18388 12.5593C3.68592 11.3436 3.55381 10.0054 3.8042 8.71357C4.0546 7.42173 4.67628 6.23406 5.59085 5.30033C6.19905 4.67481 6.92406 4.17869 7.72347 3.841C8.52288 3.50331 9.38063 3.33083 10.2465 3.33366C10.7716 3.337 11.2947 3.39847 11.8066 3.51699C11.9137 3.55062 12.0265 3.56163 12.138 3.54932C12.2495 3.53702 12.3573 3.50168 12.4548 3.44547C12.5523 3.38927 12.6374 3.31339 12.7049 3.22251C12.7724 3.13164 12.8209 3.02769 12.8473 2.91709C12.8737 2.80648 12.8775 2.69156 12.8584 2.57941C12.8394 2.46726 12.7979 2.36025 12.7366 2.26499C12.6752 2.16972 12.5953 2.08822 12.5018 2.0255C12.4082 1.96279 12.3029 1.92018 12.1925 1.90033C11.5547 1.74803 10.9018 1.66975 10.2465 1.66699C8.62429 1.67555 7.04091 2.17159 5.6962 3.09254C4.35148 4.01348 3.3057 5.31804 2.69081 6.8416C2.07593 8.36516 1.9195 10.0394 2.24127 11.6531C2.56304 13.2668 3.34859 14.7476 4.49879 15.9087C6.02332 17.4566 8.09001 18.3286 10.2465 18.3337C12.4242 18.3337 14.5127 17.4557 16.0526 15.8929C17.5925 14.3301 18.4576 12.2105 18.4576 10.0003C18.4576 9.77931 18.371 9.56735 18.2171 9.41107C18.0631 9.25479 17.8542 9.16699 17.6365 9.16699Z" fill="currentColor"/>
</svg>
