<svg width="52" height="52" viewBox="0 0 52 52" fill="none" xmlns="http://www.w3.org/2000/svg">
<circle cx="25.8984" cy="26" r="19.9062" fill="#090909"/>
<path fill-rule="evenodd" clip-rule="evenodd" d="M25.8848 50.9803C39.6698 50.9803 50.8448 39.8053 50.8448 26.0203C50.8448 12.2353 39.6698 1.0603 25.8848 1.0603C12.0998 1.0603 0.924805 12.2353 0.924805 26.0203C0.924805 39.8053 12.0998 50.9803 25.8848 50.9803ZM25.9956 47.4606C37.8631 47.4606 47.4836 37.8401 47.4836 25.9726C47.4836 14.1051 37.8631 4.4846 25.9956 4.4846C14.1281 4.4846 4.50762 14.1051 4.50762 25.9726C4.50762 37.8401 14.1281 47.4606 25.9956 47.4606Z" fill="#090909"/>
<path fill-rule="evenodd" clip-rule="evenodd" d="M24.4766 11.375C24.4766 12.1603 25.1132 12.7969 25.8984 12.7969V12.7969C26.6837 12.7969 27.3203 12.1603 27.3203 11.375V8.53125C27.3203 7.74597 26.6837 7.10938 25.8984 7.10938V7.10938C25.1132 7.10938 24.4766 7.74597 24.4766 8.53125V11.375Z" fill="white"/>
<path fill-rule="evenodd" clip-rule="evenodd" d="M14.3297 16.7416C14.883 17.2949 15.7801 17.2949 16.3334 16.7416V16.7416C16.8866 16.1883 16.8866 15.2912 16.3334 14.7379L14.3297 12.7343C13.7764 12.181 12.8793 12.181 12.326 12.7343V12.7343C11.7728 13.2876 11.7728 14.1846 12.326 14.7379L14.3297 16.7416Z" fill="white"/>
<path fill-rule="evenodd" clip-rule="evenodd" d="M35.6596 14.6151C35.1063 15.1684 35.1063 16.0655 35.6596 16.6188V16.6188C36.2129 17.172 37.1099 17.172 37.6632 16.6188L39.6669 14.6151C40.2202 14.0618 40.2202 13.1647 39.6669 12.6114V12.6114C39.1136 12.0582 38.2165 12.0582 37.6632 12.6114L35.6596 14.6151Z" fill="white"/>
<path fill-rule="evenodd" clip-rule="evenodd" d="M11.0703 27.5234C11.8556 27.5234 12.4922 26.8868 12.4922 26.1016V26.1016C12.4922 25.3163 11.8556 24.6797 11.0703 24.6797H8.22656C7.44128 24.6797 6.80469 25.3163 6.80469 26.1016V26.1016C6.80469 26.8868 7.44128 27.5234 8.22656 27.5234H11.0703Z" fill="white"/>
<path fill-rule="evenodd" clip-rule="evenodd" d="M43.6719 27.5234C44.4572 27.5234 45.0937 26.8868 45.0937 26.1016V26.1016C45.0937 25.3163 44.4572 24.6797 43.6719 24.6797H40.8281C40.0428 24.6797 39.4062 25.3163 39.4062 26.1016V26.1016C39.4062 26.8868 40.0428 27.5234 40.8281 27.5234H43.6719Z" fill="white"/>
<path fill-rule="evenodd" clip-rule="evenodd" d="M12.9418 38.2069C12.3885 38.7602 12.3885 39.6573 12.9418 40.2105V40.2105C13.4951 40.7638 14.3921 40.7638 14.9454 40.2105L16.9491 38.2069C17.5024 37.6536 17.5024 36.7565 16.9491 36.2032V36.2032C16.3958 35.6499 15.4987 35.6499 14.9454 36.2032L12.9418 38.2069Z" fill="white"/>
<path fill-rule="evenodd" clip-rule="evenodd" d="M37.3824 39.6297C37.9357 40.183 38.8328 40.183 39.3861 39.6297V39.6297C39.9394 39.0765 39.9394 38.1794 39.3861 37.6261L37.3824 35.6224C36.8291 35.0691 35.9321 35.0691 35.3788 35.6224V35.6224C34.8255 36.1757 34.8255 37.0728 35.3788 37.6261L37.3824 39.6297Z" fill="white"/>
<path fill-rule="evenodd" clip-rule="evenodd" d="M24.6797 43.5195C24.6797 44.2768 25.2935 44.8906 26.0508 44.8906V44.8906C26.808 44.8906 27.4219 44.2768 27.4219 43.5195V40.5742C27.4219 39.817 26.808 39.2031 26.0508 39.2031V39.2031C25.2935 39.2031 24.6797 39.817 24.6797 40.5742V43.5195Z" fill="white"/>
<path fill-rule="evenodd" clip-rule="evenodd" d="M28.417 22.6918L28.4173 22.6916L28.4145 22.6899C28.1426 22.4846 27.8442 22.3111 27.525 22.1754L13.8887 14.2878L22.0871 27.6998C22.1921 27.9115 22.3159 28.1126 22.4553 28.3022L22.4608 28.3111L22.4615 28.3105C22.6262 28.5332 22.8133 28.7391 23.0196 28.925C23.1793 29.0945 23.3536 29.2509 23.5404 29.3921L23.5401 29.3924L23.5429 29.3941C23.8148 29.5994 24.1132 29.7729 24.4324 29.9086L38.0687 37.7961L29.8703 24.3842C29.7652 24.1725 29.6414 23.9714 29.502 23.7818L29.4965 23.7728L29.4959 23.7734C29.3312 23.5508 29.1441 23.3449 28.9378 23.159C28.7781 22.9895 28.6038 22.8331 28.417 22.6918ZM24.471 24.5231C24.0861 24.8953 23.8476 25.4115 23.8476 25.9821C23.8476 27.1163 24.7896 28.0357 25.9517 28.0357C26.4823 28.0357 26.9669 27.8441 27.337 27.5278C27.722 27.1556 27.9604 26.6394 27.9604 26.0688C27.9604 24.9346 27.0184 24.0152 25.8564 24.0152C25.3258 24.0152 24.8411 24.2068 24.471 24.5231Z" fill="white"/>
<path fill-rule="evenodd" clip-rule="evenodd" d="M43.567 6.91088C43.3913 6.65906 43.2131 6.38092 43.0942 6.09685C42.6699 5.08228 42.7343 3.8416 43.1616 2.84063C43.1926 2.76922 43.2253 2.69875 43.2599 2.62913C43.2943 2.55942 43.3304 2.49059 43.3682 2.42266C43.4061 2.35473 43.4457 2.2878 43.4868 2.2217C43.5022 2.19713 43.5179 2.17271 43.5337 2.14836C43.5603 2.10759 43.5875 2.06721 43.6153 2.0272C43.6597 1.96332 43.7056 1.90064 43.7531 1.83904C43.8006 1.77739 43.8497 1.71711 43.9002 1.65803C43.9506 1.59885 44.0025 1.54098 44.056 1.48448C44.0751 1.46412 44.0945 1.44394 44.114 1.42386C44.1488 1.38829 44.1842 1.35331 44.22 1.31881C44.2761 1.26491 44.3335 1.21248 44.3923 1.16151C44.4509 1.11044 44.5109 1.0609 44.572 1.0129C44.6332 0.964895 44.6955 0.918498 44.7589 0.873496C44.8224 0.82852 44.8869 0.785151 44.9525 0.743478C44.9774 0.727538 45.0026 0.711935 45.0278 0.696495C45.069 0.671458 45.1104 0.646957 45.1523 0.62308C45.2198 0.584621 45.2883 0.547832 45.3577 0.512701C45.4271 0.477645 45.4973 0.444333 45.5684 0.412754C45.6394 0.381174 45.7113 0.351402 45.7838 0.323337C46.9073 -0.107222 48.1988 -0.125455 49.3033 0.375628C50.3912 0.869147 51.2751 1.85395 51.6838 2.97151C51.7096 3.04319 51.7337 3.11557 51.756 3.18855C51.7646 3.2165 51.7728 3.24452 51.7808 3.27261C51.7937 3.31778 51.8059 3.3632 51.8175 3.40885C51.8233 3.43194 51.829 3.45513 51.8345 3.47834C51.8466 3.52931 51.8579 3.58059 51.8682 3.6319C51.8834 3.70667 51.8966 3.78174 51.908 3.8571C51.9133 3.89208 51.9183 3.92719 51.9228 3.96231C51.9281 4.00289 51.9328 4.04346 51.937 4.08414C51.9447 4.15995 51.9506 4.23587 51.9546 4.31202C51.9587 4.38827 51.9609 4.46458 51.9612 4.54083C51.9616 4.61703 51.9601 4.69328 51.9567 4.76949C51.9534 4.84572 51.9482 4.92175 51.9411 4.99766C51.9388 5.02227 51.9363 5.04687 51.9337 5.07146C51.9281 5.12272 51.9216 5.17385 51.9143 5.22486C51.9106 5.25022 51.9068 5.27557 51.9028 5.30091C51.8949 5.35089 51.8861 5.40075 51.8765 5.45047C51.8621 5.52533 51.8458 5.5998 51.8279 5.67399C51.8098 5.74809 51.7899 5.82163 51.7683 5.89482C51.7467 5.96791 51.7232 6.04042 51.6981 6.11245C51.6729 6.18447 51.646 6.25582 51.6174 6.32646C51.5887 6.39709 51.5584 6.46709 51.5264 6.53637C51.0265 7.59911 50.0679 8.49389 48.9549 8.87753C47.5903 9.34807 46.3252 9.05145 45.0645 8.44598C45.0323 8.47613 44.9988 8.50636 44.965 8.53699L44.9648 8.53711L44.9608 8.54076L44.9606 8.54093C44.7379 8.74234 44.4971 8.96006 44.4311 9.25287C44.4995 9.331 44.5707 9.36452 44.6414 9.39777L44.6415 9.39785C44.7261 9.43765 44.8097 9.47702 44.8869 9.59228C44.8499 10.0781 43.9245 10.8797 43.312 11.4103C43.2279 11.4832 43.1497 11.551 43.0805 11.6121C42.6465 11.1226 42.1952 10.6432 41.7265 10.1745C41.2678 9.71577 40.7988 9.27372 40.3203 8.84835C40.407 8.75948 40.4936 8.67022 40.5803 8.58087L40.5806 8.5806C40.9383 8.2119 41.2974 7.84174 41.67 7.49145C41.6894 7.47332 41.7121 7.45102 41.7373 7.42615C41.8935 7.27233 42.149 7.02091 42.319 7.05068C42.5395 7.08935 42.6356 7.21956 42.7526 7.37811L42.7935 7.43314C43.0228 7.38867 43.2379 7.19892 43.4285 7.03071L43.4295 7.02979C43.4769 6.98793 43.5228 6.94742 43.567 6.91088ZM49.8764 4.49387C49.8764 5.83988 48.7852 6.93104 47.4392 6.93104C46.0932 6.93104 45.002 5.83988 45.002 4.49387C45.002 3.14785 46.0932 2.05669 47.4392 2.05669C48.7852 2.05669 49.8764 3.14785 49.8764 4.49387Z" fill="#090909"/>
</svg>
